<?xml version="1.0" encoding="UTF-8"?>
<!DOCTYPE svg PUBLIC "-//W3C//DTD SVG 1.1//EN" "http://www.w3.org/Graphics/SVG/1.1/DTD/svg11.dtd">
<!-- Creator: CorelDRAW 2020 (64-Bit) -->
<svg xmlns="http://www.w3.org/2000/svg" xml:space="preserve" width="390px" height="118px" version="1.1" style="shape-rendering:geometricPrecision; text-rendering:geometricPrecision; image-rendering:optimizeQuality; fill-rule:evenodd; clip-rule:evenodd"
viewBox="0 0 390 118.18"
 xmlns:xlink="http://www.w3.org/1999/xlink"
 xmlns:xodm="http://www.corel.com/coreldraw/odm/2003">
 <defs>
  <style type="text/css">
   <![CDATA[
    .fil0 {fill:#2C6247}
   ]]>
  </style>
 </defs>
 <g id="Слой_x0020_1">
  <metadata id="CorelCorpID_0Corel-Layer"/>
  <g id="_2373949327328">
   <path class="fil0" d="M39.95 20.18c0,9.03 10.43,19.55 16.93,24.44 5.59,4.21 19.15,12.38 27.7,12.57 -1.51,-5.68 -9.97,-3.19 -28.31,-17.4 -15.15,-11.75 -19,-28.32 8.72,-28.32 23.12,0 27.94,-2.74 29.92,9.27 5.47,33.07 -2.2,76.73 -42.98,76.73 -13.02,0 -21.18,0.06 -32.64,-6.56 -24.81,-14.33 -12.26,-35.9 20.66,-35.9 7.7,0 29.39,-1.12 29.39,9.8 0,11.14 -20.12,5.61 -38.1,9.8 0.37,4.36 1.63,5.62 11.09,6.42 16.48,1.4 22.94,-6.81 44.43,-8.6 -1.63,-6.11 -5.49,-3.26 -13.06,-3.26 -0.67,-1.41 0.81,-3.12 -2.27,-8.59 -1.88,-3.32 -3.8,-4.99 -7.5,-6.69 -21.64,-9.92 -59.9,-3.1 -59.9,21.81 0,4.89 8.14,19.79 14.58,24.61 14.53,10.89 35.68,13.84 52.06,3.93 24.88,-15.04 36.24,-44.78 31.48,-74.5l-1.24 -16.09c24.12,0 21.8,11.33 28.31,13.06 3.35,-14.4 -27.72,-23.02 -53.13,-23.95l-8.86 0c-8.16,0.33 -15.05,1.62 -18.99,3.94 -3.48,2.05 -8.29,8.64 -8.29,13.48z"/>
   <path class="fil0" d="M248.96 80.05c-9.35,0 -7.67,-2.36 -4.58,-15.47 1.54,-6.56 3.45,-13.97 7.84,-17.18 4.53,9.42 4.93,32.65 -3.26,32.65zm-29.39 -26.12c0,4.16 -0.34,0.39 1.09,3.26 6.22,-1.66 2.7,-9.91 8.99,-10.63 5.77,-0.66 0.65,8.23 2.8,28.23 1.25,11.72 0.89,25.01 4.65,35.63 1.38,3.91 2.13,6.59 6.42,7.73 0,-15.84 -2.18,-17.67 -2.18,-32.65 0,-8.52 7.7,6.35 17.64,-7.4 12.2,-16.87 -5.83,-50.42 -14.11,-28.26 -1.51,4.05 -1.67,7.36 -4.62,9.53 0,-11.78 -0.62,-16.33 -8.71,-16.33 -7.38,0 -11.97,7.83 -11.97,10.89z"/>
   <path class="fil0" d="M365.44 80.05c-7.23,0 -6.6,-19.94 -2.18,-28.3 2.08,1.39 10.89,7.93 10.89,10.89 0,5.88 -3.26,17.41 -8.71,17.41zm-15.24 -60.96c9.03,0 13.3,6.29 17.07,13.4 3.2,6.02 6.88,14.95 6.88,23.61 -5.68,-1.51 -3.04,-3.92 -8.71,-5.44 0.94,-4.03 1.79,-3.04 2.17,-7.62 -5.65,0.47 -4.11,6.77 -12.46,-7.13 -2.18,-3.64 -4.46,-7.36 -5.2,-12.15 -0.88,-5.73 0.39,0.55 0.25,-4.67zm-5.45 1.09c0,11 8.87,18.23 14.16,26.13 -1.24,5.28 -5.45,9.43 -5.45,15.24 0,19.51 20.23,36.5 27.22,6.53 4.57,0.38 3.58,1.24 7.62,2.18 -1.82,-2.72 -2.98,-4.5 -6.53,-5.45 0,-16.08 -0.99,-20.4 -6.88,-31.23 -11.55,-21.25 -30.14,-20.43 -30.14,-13.4z"/>
   <path class="fil0" d="M306.65 58.28c4.98,-3.65 2.66,-8.98 9.8,-10.88 -2.99,6.23 -1.09,25.21 -1.09,35.92l8.71 0c0,-9.25 -0.71,-9.69 1.09,-17.42l8.71 0c0,32.88 22.21,13.27 17.42,3.27 -4.42,3.23 -2.23,4.6 -4.68,8.39 -1.38,2.13 -0.42,1.58 -2.94,2.49 0,-6.53 -0.01,-13.06 0,-19.59 0.01,-15.13 2.44,-16.33 -7.62,-16.33 0,6.3 -1.09,9.06 -1.09,16.33l-9.8 1.09c0,-16.48 -9.28,-23.03 -16.57,-12.2 -2.08,3.1 -3.37,5.83 -1.94,8.93z"/>
   <path class="fil0" d="M276.17 81.14c-3.64,-15.65 3.91,-31.8 14.15,-32.66 0,8.05 -5.87,23.12 -10.59,29.69 -3.27,4.54 0.25,1.59 -3.56,2.97zm1.09 3.27c4.93,-1.15 6.12,-2.64 8.37,-6.88l5.78 -9.45c0.56,2.38 1.03,8.3 1.8,10.17 1.03,2.5 4.47,5.07 8,5.07 2.35,0 2.95,-0.95 5.48,-5.41 1.86,-3.31 2.14,-4.46 2.14,-9.83 -7.85,2.09 -0.86,8.79 -8.71,10.88l0 -34.83c-7.67,0 -11.53,-2.49 -17.86,0.64 -19.44,9.62 -14.91,33 -5,39.64z"/>
   <path class="fil0" d="M118.33 78.96c-0.4,-4.85 -1.38,-11.97 -6.53,-11.97 -7.81,0 -2.68,16.33 7.62,16.33 10.23,0 12.95,-31.47 22.86,-38.1 0,5.07 -1.32,8.94 -2.03,13.21 -0.91,5.5 -2.33,8.38 -2.33,14 0,1.38 4.9,20.76 15.46,6.75 2.22,-2.94 3.05,-5.02 3.05,-10.01 -6.77,1.81 -3.03,9.07 -9.8,10.88 0,-7.33 9.35,-39.19 -4.35,-39.19 -5.66,0 -10.54,13.21 -12.45,18.04 -1.65,4.15 -2.62,6.75 -4.33,10.91 -1.86,4.54 -2.69,7.96 -7.17,9.15z"/>
   <path class="fil0" d="M170.58 63.72c0.11,-4.72 1.98,-17.41 7.62,-17.41l4.36 0c0,8.18 -2.63,15.24 -11.98,17.41zm-7.62 0c0,9.47 4.85,21.11 13.84,20.18 7.16,-0.73 18.54,-11.54 15.55,-18 -3.58,2.4 -9.74,13.06 -14.15,13.06 -2.42,0 -11.76,-6.73 0.62,-15.71 28.89,-20.93 -15.86,-35.09 -15.86,0.47z"/>
   <path class="fil0" d="M192.35 56.1c7.76,-2.07 3.53,-10 14.16,-10.88 3.57,13.49 -7.63,11.63 -7.63,27.21 0,9.51 10.79,15.41 20.37,6.22 0.19,-0.19 3.18,-4.29 3.28,-4.46 1.6,-3.03 1.67,-3.26 0.3,-6.11 -7.04,4.71 -5.75,10.88 -10.88,10.88 -9.79,0 4.35,-22.2 4.35,-27.21 0,-2.96 -3.99,-9.8 -9.79,-9.8 -7.09,0 -13.58,7.24 -14.16,14.15z"/>
  </g>
 </g>
</svg>
