<?xml version="1.0" encoding="utf-8"?>
<!-- Generator: Adobe Illustrator 19.0.0, SVG Export Plug-In . SVG Version: 6.00 Build 0)  -->
<svg version="1.1" id="Слой_1" xmlns="http://www.w3.org/2000/svg" xmlns:xlink="http://www.w3.org/1999/xlink" x="0px" y="0px"
	 viewBox="0 0 174 194" style="enable-background:new 0 0 174 194;" xml:space="preserve">
<style type="text/css">
	.st0{fill:#FEE1B5;}
	.st1{fill:#F0BF86;}
	.st2{fill:#FDD5A6;}
	.st3{fill:#6C4833;}
	.st4{fill:#9D6746;}
	.st5{fill:#36353D;}
	.st6{fill:#656D6F;}
	.st7{fill:#FFFFFF;}
	.st8{fill:#D0D9D4;}
	.st9{fill:#16428D;}
	.st10{fill:#76B9CE;}
	.st11{clip-path:url(#XMLID_3_);}
	.st12{fill:#3491AF;}
</style>
<g id="XMLID_1_">
	<g id="XMLID_56_">
		<path id="XMLID_64_" class="st0" d="M87.2,119.3c3.8,0.2,11.6-1.3,14.8-3.2c4-2.4,9.7-8.3,13.7-13.8c-1.5,5.3-1.4,13.1-1.5,18.7
			c-0.2,10.2,3,19,10.9,26.8c7.9,7.9,41.2,26.4,41.2,26.4l7.9,19.9H87.2h0h-87l7.9-19.9c0,0,33.3-18.5,41.2-26.4
			c7.9-7.9,11.1-16.6,10.9-26.8c-0.1-5.6,0-13.4-1.5-18.7c4,5.6,9.7,11.4,13.7,13.8C75.6,118,83.4,119.5,87.2,119.3L87.2,119.3z"/>
		<path id="XMLID_63_" class="st1" d="M41.8,153.9c-0.1,0.1-0.1,0.2-0.2,0.3c5.8,2.2,13.2-5.9,17.5-8.4c4.5-2.6,40.9-22.8,42.6-29.4
			c-4.8,1.6-9.4,2.9-14.6,2.9h0c-3.8,0.2-11.6-1.3-14.8-3.2c-4-2.4-9.7-8.3-13.7-13.8c1.5,5.3,1.4,13.1,1.5,18.7
			c0.2,10.2-3,19-10.9,26.8C47.1,149.9,43.6,151.4,41.8,153.9z"/>
		<g id="XMLID_59_">
			<g id="XMLID_60_">
				<path id="XMLID_62_" class="st0" d="M125.2,35.1c0.5,12.2,0,24.2-0.9,34.3c-0.7,7.6-1.7,14.1-2.5,18.8c-0.6,3-1.1,5.3-1.6,6.5
					c-0.8,2.1-2.4,4.8-4.3,7.5c-4,5.5-9.7,11.4-13.7,13.8c-3.2,2-11,3.4-14.8,3.2h0V7.4h0C87.2,7.4,123.9,7.7,125.2,35.1z"/>
				<path id="XMLID_61_" class="st2" d="M87.2,7.4v111.9c-3.8,0.2-11.6-1.3-14.8-3.2c-4-2.4-9.7-8.3-13.7-13.8
					c-2-2.7-3.5-5.3-4.3-7.5c-0.5-1.3-1-3.5-1.6-6.5c-0.9-4.7-1.8-11.2-2.5-18.8c-1-10.1-1.5-22.2-0.9-34.3
					C50.5,7.7,87.2,7.4,87.2,7.4z"/>
			</g>
		</g>
		<path id="XMLID_58_" class="st1" d="M124.2,69.5c0,0,2.7,1.4,3.7,4.3c1.1,3-4.2,11.6-6.3,14.5"/>
		<path id="XMLID_57_" class="st1" d="M50.2,69.5c0.7,7.6,1.6,14.1,2.5,18.8c-2.1-2.9-7.3-11.5-6.3-14.5
			C47.5,70.9,50.2,69.5,50.2,69.5L50.2,69.5z"/>
	</g>
	<g id="XMLID_49_">
		<path id="XMLID_55_" class="st3" d="M128.9,31.2c0.6,6,4.1,9.6,1.9,15.6c-2,5.5-3.6,11.2-4.4,16.9c-0.5,3-1,5.5-2,8.4
			c-0.7,2-0.2,5.1-1.3,6.8c-2.3,3.4-2.1-1-2-3.2c0.7-9.7,1.9-19.6,1.5-29.4c-0.3-6.7-5.1-10-11.8-7.8c-5.4,1.8-10.8,4.3-16.4,5.9
			c-5.8,1.7-11.5-0.9-16.7-3.5c-5-2.5-11.4-4.2-17.4-3.1c-9.4,1.6-6.5,23.4-7.2,26.5c-0.7,3.4,0.2,7.3,0,10.9
			c-0.1,1-2.7-0.9-2.9-1.1c-0.7-1,0.2-2.8,0.2-3.9c-0.2-4.2-1.5-8.5-2.2-12.6c-0.5-2.8-1.7-5.6-2.2-8.3c-1.1-6.1,2.3-9.9,3.2-15.3
			c0.5-2.8-0.8-4.8,0.9-7.6c1.4-2.2,2.5-4,3.6-6.3c1.1-2.4,1.3-4.9,3.2-7.1c2.1-2.5,4.9-1.6,7.7-2.2c0.7-0.2,1.4-0.3,2.2-0.3
			c1.9-2.6,1.6-4.8,4.7-6.4c2.5-1.3,5.3-1.7,8.2-1.8c2.8-0.1,6,1.1,8.5,0.7c2.9-0.5,4.2-2,7.5-2.1c5.5-0.2,12.7,1,16.7,5.1
			c2.1,2.1,1.9,4.3,3.3,6.6c1.1,2,3.2,3.4,5,4.8C124.9,20.9,128.4,25.6,128.9,31.2z"/>
		<path id="XMLID_54_" class="st4" d="M92.1,41c1-2.7,2-5.3,2.5-8.1c0.5-2.8,0.5-5.6,0.1-8.4c-0.2-1.4-0.5-2.8-0.9-4.1
			c-0.4-1.4-0.8-2.7-1.5-3.9c-1.2-2.5-3.4-4.5-5.7-6c1.3,0.6,2.5,1.4,3.6,2.4c1.1,1,2,2.1,2.7,3.4c0.7,1.3,1.2,2.6,1.7,4
			c0.4,1.4,0.7,2.8,1,4.2c0.4,2.8,0.4,5.8-0.3,8.6C94.5,35.8,93.4,38.4,92.1,41z"/>
		<path id="XMLID_53_" class="st4" d="M73,5.9c0.9,0.2,1.7,0.6,2.5,1C76.3,7.5,77,8,77.6,8.7c1.3,1.3,2.2,2.9,3.1,4.5
			c0.8,1.6,1.5,3.3,2,5c0.3,0.8,0.5,1.7,0.8,2.6c0.2,0.9,0.5,1.7,0.7,2.6c-0.7-1.6-1.3-3.3-2-4.9c-0.7-1.6-1.4-3.3-2.2-4.8
			c-0.8-1.6-1.7-3.1-2.8-4.4C76.1,7.8,74.7,6.6,73,5.9z"/>
		<path id="XMLID_52_" class="st4" d="M102.5,33.3c0.6-0.9,1-1.9,1.3-3c0.3-1,0.5-2.1,0.6-3.2c0.2-2.2,0.2-4.3-0.1-6.5
			c-0.3-2.1-0.8-4.3-1.7-6.2c-0.9-1.9-2.3-3.8-4.3-4.7c1.1,0.3,2,0.9,2.9,1.7c0.8,0.8,1.5,1.7,2,2.7c1.1,2,1.6,4.2,1.9,6.4
			c0.3,2.2,0.3,4.5-0.1,6.7C104.6,29.4,104,31.6,102.5,33.3z"/>
		<path id="XMLID_51_" class="st4" d="M113.3,12.2c1.8,1.9,3.2,4.1,4.2,6.5c0.5,1.2,0.9,2.5,1.1,3.8c0.2,1.3,0.2,2.6-0.1,3.9
			c0-1.3-0.2-2.6-0.5-3.8c-0.3-1.2-0.7-2.4-1.2-3.6C115.8,16.6,114.6,14.4,113.3,12.2z"/>
		<path id="XMLID_50_" class="st4" d="M65.4,13.9c0.9,0.4,1.8,1,2.5,1.7c0.7,0.7,1.4,1.5,1.9,2.4c1.1,1.7,1.8,3.7,2.2,5.6
			c-1-1.8-1.8-3.6-2.8-5.2C68.2,16.7,66.9,15.3,65.4,13.9z"/>
	</g>
	<g id="XMLID_4_">
		<path id="XMLID_48_" class="st5" d="M174.1,194h-14v-0.4c0.3-15.8,5.8-19.8,5.8-19.8c0.1,0.1,0.2,0.2,0.3,0.4
			C169.8,178.1,174.1,194,174.1,194z"/>
		<path id="XMLID_47_" class="st6" d="M143.3,164.4c0,0-4.5,20.5-10.4,29.6h-18.4v-0.4c7.9-15.9,20.2-59.2,8-57.6
			c0.3-4.4-4-8.7-8-9.1c-0.3-1.9-0.3-3.9-0.3-6c0-0.3,0-0.6,0-0.9h0.3c0,0,23.2,19.4,25.3,24.3l-6.2,10.1l-1.1,1.7
			C132.6,156.1,139.2,159.6,143.3,164.4z"/>
		<path id="XMLID_46_" class="st5" d="M134,154.6c12.4,8.5,25.5,12.3,31.9,19.1c0,0-5.4,4.1-5.8,19.8v0.4h-27.2
			c5.9-9,10.4-29.6,10.4-29.6c-4.2-4.9-10.8-8.3-10.8-8.3l1.1-1.7L134,154.6z"/>
		<path id="XMLID_45_" class="st7" d="M116.9,145.1c-1.4,8.5-5.3,19.7-10,29.6c-2.4-2.7-17.7-15.9-17.7-15.9
			S113.8,156.6,116.9,145.1z"/>
		<path id="XMLID_44_" class="st8" d="M89.2,158.9c0,0,15.3,13.1,17.7,15.9c-3.8,7.9-8.1,15-12.2,19.3h-0.5c0-2.5-5-9.4-5-9.4
			c2-2.3,4.5-4.2,6.3-6.7c2.2-3.2,1.2-4.3-0.4-7.4c-1.9-3.7-4.9-7.3-6.9-11L89.2,158.9z"/>
		<path id="XMLID_43_" class="st9" d="M87.9,158.9c0.1,0.2,0.2,0.4,0.3,0.5c2,3.7,5,7.3,6.9,11c1.6,3.1,2.6,4.3,0.4,7.4
			c-1.8,2.5-4.2,4.4-6.3,6.7c0,0,5,7,5,9.4h-6.3h0h-0.6h0h-6.4c0-2.5,5-9.4,5-9.4c-2-2.3-4.5-4.2-6.3-6.7c-2.2-3.2-1.2-4.3,0.4-7.4
			c1.9-3.7,4.9-7.3,6.9-11c0.1-0.2,0.2-0.4,0.3-0.6H87.9z"/>
		<path id="XMLID_42_" class="st7" d="M85.9,158.9C85.9,158.9,85.9,158.9,85.9,158.9c-0.5,0.4-15.3,13.2-17.7,15.9
			c-4.8-9.9-8.6-21.1-10-29.6C61.3,156.6,85.9,158.9,85.9,158.9z"/>
		<path id="XMLID_41_" class="st8" d="M85.9,184.6c0,0-5,7-5,9.4h-0.5c-4-4.3-8.4-11.3-12.2-19.3c2.4-2.7,17.2-15.4,17.7-15.8l1,0.5
			c-2,3.7-5,7.3-6.9,11c-1.6,3.1-2.6,4.3-0.4,7.4C81.4,180.4,83.8,182.3,85.9,184.6z"/>
		<path id="XMLID_40_" class="st6" d="M60.2,120.9c0,2-0.1,4-0.3,6c-4.1,0.3-8.4,4.6-8,9.1c-12.2-1.5,0.1,41.8,8,57.6v0.4H41.5
			c-5.9-9-10.4-29.6-10.4-29.6c4.2-4.9,10.8-8.3,10.8-8.3l-1.1-1.7l-6.2-10.1c2.1-4.9,25.3-24.3,25.3-24.3h0.3
			C60.1,120.3,60.1,120.6,60.2,120.9z"/>
		<path id="XMLID_39_" class="st5" d="M8.5,173.7c6.3-6.8,19.5-10.6,31.9-19.1l0.4-0.2l1.1,1.7c0,0-6.6,3.5-10.8,8.3
			c0,0,4.5,20.5,10.4,29.6H14.2v-0.4C13.9,178,8.6,173.9,8.5,173.7z"/>
		<path id="XMLID_38_" class="st10" d="M106.2,174.7c4.8-9.9,8.6-21.1,10-29.6c0.7-4.2,0.8-7.8,0-10.2l0.3,0.1
			c-1-2.6-1.7-5.3-2.1-8.2c4.1,0.3,8.4,4.6,8,9.1c12.2-1.5-0.1,41.8-8,57.6v0.4H94.1C98.1,189.7,102.4,182.7,106.2,174.7z"/>
		<path id="XMLID_37_" class="st10" d="M68.2,174.7c3.8,7.9,8.1,15,12.2,19.3H59.9v-0.4c-7.9-15.9-20.2-59.2-8-57.6
			c-0.3-4.4,4-8.8,8-9.1c-0.4,2.8-1,5.6-2.1,8.2l0.3-0.1c-0.7,2.4-0.7,6,0,10.2C59.5,153.6,63.4,164.8,68.2,174.7z"/>
		<g id="XMLID_6_">
			<defs>
				<path id="XMLID_7_" d="M106.2,174.7c4.8-9.9,8.6-21.1,10-29.6c0.7-4.2,0.8-7.8,0-10.2l0.3,0.1c-1-2.6-1.7-5.3-2.1-8.2
					c4.1,0.3,8.4,4.6,8,9.1c12.2-1.5-0.1,41.8-8,57.6v0.4H94.1C98.1,189.7,102.4,182.7,106.2,174.7z M58.1,145.1
					c-0.7-4.2-0.8-7.8,0-10.2l-0.3,0.1c1-2.6,1.7-5.3,2.1-8.2c-4.1,0.3-8.4,4.6-8,9.1c-12.2-1.5,0.1,41.8,8,57.6v0.4h20.5
					c-4-4.3-8.4-11.3-12.2-19.3C63.4,164.8,59.5,153.6,58.1,145.1z"/>
			</defs>
			<clipPath id="XMLID_3_">
				<use xlink:href="#XMLID_7_"  style="overflow:visible;"/>
			</clipPath>
			<g id="XMLID_10_" class="st11">
				<circle id="XMLID_36_" class="st12" cx="56.6" cy="132.3" r="1.6"/>
				<circle id="XMLID_35_" class="st12" cx="50.6" cy="139.5" r="1.6"/>
				<circle id="XMLID_34_" class="st12" cx="57.1" cy="143.2" r="1.6"/>
				<circle id="XMLID_33_" class="st12" cx="47.3" cy="149.6" r="1.6"/>
				<circle id="XMLID_32_" class="st12" cx="55" cy="154.5" r="1.6"/>
				<circle id="XMLID_31_" class="st12" cx="52.7" cy="162.7" r="1.6"/>
				<circle id="XMLID_30_" class="st12" cx="50.1" cy="169" r="1.6"/>
				<circle id="XMLID_29_" class="st12" cx="61.7" cy="168.6" r="1.6"/>
				<circle id="XMLID_28_" class="st12" cx="57.5" cy="177.3" r="1.6"/>
				<circle id="XMLID_27_" class="st12" cx="66.1" cy="180.7" r="1.6"/>
				<circle id="XMLID_26_" class="st12" cx="59.7" cy="186.8" r="1.6"/>
				<circle id="XMLID_25_" class="st12" cx="64" cy="192.7" r="1.6"/>
				<circle id="XMLID_24_" class="st12" cx="70.7" cy="190.6" r="1.6"/>
				<circle id="XMLID_23_" class="st12" cx="103.4" cy="192.3" r="1.6"/>
				<circle id="XMLID_22_" class="st12" cx="105.7" cy="182.9" r="1.6"/>
				<ellipse id="XMLID_21_" class="st12" cx="114.7" cy="182" rx="1.6" ry="1.3"/>
				<ellipse id="XMLID_20_" class="st12" cx="111.9" cy="191.8" rx="1.6" ry="1.3"/>
				<ellipse id="XMLID_19_" class="st12" cx="107.7" cy="171.6" rx="1.6" ry="1.3"/>
				<ellipse id="XMLID_18_" class="st12" cx="114.7" cy="166" rx="1.6" ry="1.3"/>
				<ellipse id="XMLID_17_" class="st12" cx="125.8" cy="161.7" rx="1.6" ry="1.3"/>
				<ellipse id="XMLID_16_" class="st12" cx="121.3" cy="170.3" rx="1.6" ry="1.3"/>
				<ellipse id="XMLID_15_" class="st12" cx="121.4" cy="156.1" rx="1.6" ry="1.3"/>
				<ellipse id="XMLID_14_" class="st12" cx="114.2" cy="157.5" rx="1.6" ry="1.3"/>
				<ellipse id="XMLID_13_" class="st12" cx="118.2" cy="145.7" rx="1.6" ry="1.3"/>
				<ellipse id="XMLID_12_" class="st12" cx="120.1" cy="133" rx="1.6" ry="1.3"/>
				<ellipse id="XMLID_11_" class="st12" cx="124.9" cy="143.4" rx="1.6" ry="1.3"/>
			</g>
		</g>
		<path id="XMLID_5_" class="st5" d="M14.2,193.6v0.4h-14c0,0,4.3-15.9,7.9-19.9c0.1-0.1,0.2-0.2,0.3-0.4
			C8.6,173.9,13.9,178,14.2,193.6z"/>
	</g>
</g>
</svg>
