<?xml version="1.0" encoding="utf-8"?>
<!-- Generator: Adobe Illustrator 19.0.0, SVG Export Plug-In . SVG Version: 6.00 Build 0)  -->
<svg version="1.1" id="Слой_1" xmlns="http://www.w3.org/2000/svg" xmlns:xlink="http://www.w3.org/1999/xlink" x="0px" y="0px"
	 viewBox="0 0 152 197" style="enable-background:new 0 0 152 197;" xml:space="preserve">
<style type="text/css">
	.st0{fill:#6C4833;}
	.st1{fill:#FEE1B5;}
	.st2{fill:#FDD5A6;}
	.st3{fill:#F0BF86;}
	.st4{fill:#CED6D2;}
	.st5{fill:#E5F2E9;}
</style>
<g id="XMLID_2_">
	<path id="XMLID_34_" class="st0" d="M143.8,157.3c-0.5-1.9,1.2-5.1,0.1-7.1c-1-1.9-4.9-2.3-6-4.2c-1.1-2,0.6-5.2-0.1-7.2
		c-0.8-2.2-4.1-4.2-3.7-6.2c0.3-1.7,3.7-2.7,4.1-4.4c0.4-1.7-2.1-4-1.8-5.7c0.3-1.7,3.6-3,3.7-4.7c0.1-2.1-2.5-3.2-3.4-4.8
		c-1.6-3,2.8-4.5,1.9-7.6c-0.5-2-4.1-3.1-4.8-5.1c-0.6-2,1.6-4.8,1.1-6.8c-0.5-2-3.9-3.5-4.1-5.6c-0.3-2.9,2.7-5.8,2.8-8.7
		c0.1-2.9-2.8-5.8-2.6-8.7c0.2-2.9,3.4-5.6,3.3-8.5c0-2.8-3.2-5.5-3.7-8.3c-0.6-3.8,1.2-8.4-0.3-12.3c-1.4-3.6-6-5.9-8-9.4
		c-2-3.5-1.8-8.5-4.2-11.6c-2.6-3.3-7.6-4.2-10.3-6.7c-2-1.9-2.9-6.1-5.7-7.6c-2.6-1.4-6.6,0.3-9.5-0.6c-3-0.9-5.5-4.4-8.4-4.6
		c-1.6-0.1-3.4,0.8-4.7,1.7c-1.1,0.8-1.6,2.3-2.8,2.8c-3.7,1.5-5.9-5-10-4.7c-2.7,0.2-5,3.8-7.8,4.7c-2.7,0.9-6.6-0.6-9,0.8
		c-2.6,1.5-3.2,5.7-5.2,7.4c-2.8,2.5-7.8,3.4-10.3,6.7c-2.4,3.1-2.2,8.1-4.2,11.6c-2,3.5-6.6,5.8-8,9.4c-1.5,3.9,0.3,8.5-0.3,12.3
		c-0.4,2.9-3.6,5.5-3.6,8.3c0,2.9,3.2,5.6,3.3,8.5c0.2,2.9-2.7,5.8-2.6,8.7C19,82,22,85,21.8,87.9c-0.2,2.1-3.6,3.6-4.1,5.6
		c-0.5,2,1.8,4.8,1.1,6.8c-0.6,2-4.2,3.1-4.8,5.1c-0.6,2.1,2.1,4,2.1,6.1c0,2.7-3.8,3.8-3.6,6.4c0.1,1.8,3.4,3,3.7,4.7
		c0.3,1.7-2.2,4-1.8,5.7c0.4,1.6,3.8,2.6,4.1,4.4c0.4,2-2.9,4-3.7,6.2c-0.7,1.9,1,5.2-0.1,7.2c-1.1,1.9-4.9,2.3-6,4.2
		c-1.2,2.1,0.6,5.3,0.1,7.1c-0.5,1.6-3.7,2.6-3.7,4c0,1.6,3.2,2.8,3.5,4.3c0.3,1.5-2.3,3.6-1.9,5.1c0.5,2.3,3.2,1.9,2.7,4.9
		c3.4,1.4,6.6-0.6,9.8-1.4c2.3-0.5,4.6,0.2,6.9,0.6c5.5,1,11,1.5,16.6,1.5c16.8,0,16.8-3,33.6-3c16.8,0,16.8,3,33.6,3
		c4.2,0,9.2,0.3,13.3-0.9c4.5-1.3,7.7-0.8,12.4,0c1.7,0.3,3.6,0.5,5.3,0.4c2.1-0.1,1.4-0.7,2.2-2c0.7-1.1,2.6-1.9,2.9-3.1
		c0.4-1.5-2.2-3.6-1.9-5.1c0.3-1.5,3.5-2.7,3.5-4.2C147.5,159.9,144.3,158.9,143.8,157.3z"/>
	<g id="XMLID_32_">
		<path id="XMLID_33_" class="st1" d="M149.2,178.1c2.7,3.9,2.8,19,2.8,19H76h-76c0,0,0.1-15,2.8-19c2.2-3.2,6.1-3.3,13.5-7.8
			c7-4.2,15.2-9.3,20.8-13.6c1.4-1.1,2.7-2.2,3.7-3.1c0,0,0,0,0,0c0.4,0,13.1-1.3,21.8-10.2c6.1-6.2,11.4-20.7,24.4-33.1
			c1.6-1.2,2.6-2.4,3.8-3.3c2.5-1.9,5.6-4.4,8.3-7.2l0.1,0.1c-1.4,5.4-1.1,17.5-1.2,22.6c-0.1,10.5,4.6,21.8,11.9,29.9
			c4,4.5,15.6,11.8,25.1,17.5C142.8,174.6,146.9,174.8,149.2,178.1z"/>
	</g>
	<g id="XMLID_30_">
		<path id="XMLID_31_" class="st1" d="M87.1,110.3c-2.1,1.6-5.2,2.9-11.1,2.9V5.3l0-0.6c6.6,0,35.7,3.9,36.8,32.1
			c0.4,10.1-0.1,19-0.9,26.5c-0.9,7.8-2.2,14.1-3.4,18.8c-0.9,3.3-1.6,5.7-2.2,7.3c-1.2,3.6-3.9,7.2-7.1,10.4
			c-2.8,2.8-5.8,5.3-8.3,7.2C89.7,107.9,88.7,109.2,87.1,110.3z"/>
	</g>
	<g id="XMLID_28_">
		<path id="XMLID_29_" class="st2" d="M39.2,36.8C40.4,8.6,69.4,4.7,76,4.7c0,0,0,0,0,0l0,0.6v107.9c-10.1,0-12.1-4.1-14.9-6.2
			c-2.5-1.9-5.6-4.4-8.3-7.2c-3.1-3.2-5.9-6.8-7.1-10.4c-0.5-1.6-1.3-4-2.2-7.3c-1.2-4.7-2.5-11-3.4-18.8
			C39.3,55.8,38.8,47,39.2,36.8z"/>
	</g>
	<g id="XMLID_26_">
		<path id="XMLID_27_" class="st3" d="M52.8,99.8c2.8,2.8,5.8,5.3,8.3,7.2c2.8,2.1,4.8,6.2,14.9,6.2c5.8,0,9-1.4,11.1-2.9
			c-13.1,12.4-18.3,26.9-24.4,33.1c-8.7,8.9-21.4,10.1-21.8,10.2c0.4-0.4,0.8-0.8,1.1-1.1c7.3-8.1,12-19.5,11.9-29.9
			C53.9,117.4,54.1,105.3,52.8,99.8L52.8,99.8z"/>
	</g>
	<g id="XMLID_24_">
		<path id="XMLID_25_" class="st3" d="M40.2,63.3c0.9,7.8,2.2,14.1,3.4,18.8c-2.3-3.1-7.5-11-6.8-14.1c0.7-3,3.1-4.7,3.1-4.7
			L40.2,63.3z"/>
	</g>
	<g id="XMLID_22_">
		<path id="XMLID_23_" class="st3" d="M112,63.4c0,0,2.5,1.6,3.3,4.7c0.8,3.1-4.8,11-7.4,14.1c1.3-4.7,2.7-11,3.7-18.8L112,63.4z"/>
	</g>
	<g id="XMLID_17_">
		<g id="XMLID_20_">
			<path id="XMLID_21_" class="st0" d="M39.1,36.2c-0.1,2.6-3.4,6.1-3.7,10.3c-0.2,3.2,2.5,7,2.3,10.7c-0.1,1-0.9,5.6,0.3,6.2
				c1.4,0.7,4-6.3,4.2-7.3c0.7-3.9-1.3-8-0.7-9c1.1-1.8,4.8-1.5,6.4-3c1.5-1.4,1.4-5.1,3.2-6.3c1.8-1.1,5.1,0.5,7.1-0.4
				c2-0.9,2.9-4.5,4.8-5.2c2.1-0.7,5,1.7,7,1.2c1.7-0.4,2.9-3.7,4.9-4.1c1.8-0.4,4.3,2.3,6.1,1.8c1.8-0.5,2.8-3.9,4.5-4.5
				c1.8-0.7,4.9,1.1,6.4,0.1c1.4-1,0.8-2.8,1-4.2c0.3-2,1.7-0.5,2.9-1.7c0.9-0.9,1.1-2,1.3-3.2c0.2-1.2,0.6-1.9,1-3
				c0.8-2.1,0.9-4.7-1.1-6.1c-1.6-1.2-3.4-0.7-5.2-1.1c-2.2-0.5-4.3-1.4-6.6-1.9c-3.5-0.7-6.7-1.6-10.2-1.2
				c-2.9,0.3-5.8,0.9-8.7,1.1c-3,0.3-5.3,1.3-7.9,2.4c-2.6,1.2-5.2,1.9-7.5,3.7c-1.3,1-2.6,2.1-3.8,3.3c-1,1.1-1.6,2.4-2.7,3.3
				c-2.3,1.9-5.1,3.3-6.2,6.3C37.1,27.7,39.3,32,39.1,36.2z"/>
		</g>
		<g id="XMLID_18_">
			<path id="XMLID_19_" class="st0" d="M98.4,11.4c-0.5,0.4-1,0.8-1.3,1.2c-1.1,1.2-2.8,3-2.6,4.8c0.2,1.3,1.9,1.1,1.8,2.6
				c0,1.5-1.1,2.6-0.3,4.3c0.4,0.9,3.6,0.4,4.2,1.3c0.5,0.9-1.5,3.4-0.9,4.3c0.6,0.8,3.7-0.1,4.4,0.9c0.7,0.8-1.1,3.6-0.4,4.5
				c0.7,0.9,3.8-0.1,4.5,0.8c0.7,0.9-1.2,3.6-0.6,4.5c0.6,1,3.9,0.5,4.3,1.4c0.4,0.9-2.1,3.1-1.9,4.6c0.2,0.9,1.1,1,1.7,1.4
				c0.7,0.5,0.9,1.4,0.9,2.2c0,0.7-0.2,1.4-0.7,2c-0.4,0.6-1.3,1-1.2,1.8c0,0.9,1.2,1.4,1.4,2.2c0.2,1-0.2,2.8-0.2,3.9
				c0.1,1.6,0.2,2.1,1.9,3c0.6-1.2,0.3-3.2,0.6-4.5c0.2-0.9,0.5-1.9,0.4-2.9c0-0.9-0.5-1.7-0.6-2.5c-0.2-1.4-0.3-3.1,0.3-4.4
				c0.4-0.8,1.2-1.3,1.6-2.2c0.6-1.3-0.3-2.2-0.9-3.2c-0.8-1.4-0.7-3.1-0.4-4.6c0.1-0.6,0.3-1.3,0.5-1.8c0.3-0.7,0.9-1.2,0.9-2.1
				c-0.1-2.3-3.4-4.1-3.8-6.1c-0.5-2.3,1.6-5.3,0.7-7.2c-1-2.1-4.7-2.3-6-3.9c-1.4-1.8-0.8-5.4-2.4-6.8
				C102.5,9.3,100.1,10.1,98.4,11.4z"/>
		</g>
	</g>
	<g id="XMLID_15_">
		<path id="XMLID_16_" class="st4" d="M130.5,196v1.1H76.4h0H22.3V196c4-10.6,2.1-20.2,0.5-29.4c3.9-2.4,7.8-4.9,11.2-7.3
			c2.5,2.3,15,12.3,42.4,12.3h0c27.4,0,39.8-10,42.4-12.3c3.4,2.4,7.3,4.9,11.2,7.3C128.4,175.8,126.4,185.4,130.5,196z"/>
	</g>
	<g id="XMLID_13_">
		<path id="XMLID_14_" class="st5" d="M113,154.9c1.6,1.3,3.6,2.8,5.7,4.4c-2.5,2.3-15,12.3-42.4,12.3h0c-27.4,0-39.8-10-42.4-12.3
			c2.2-1.5,4.2-3,5.8-4.4c0,0,13.2,9.5,36.6,8h0C99.8,164.5,113,154.9,113,154.9z"/>
	</g>
	<g id="XMLID_8_">
		<path id="XMLID_12_" class="st0" d="M29.2,132.8c0,0,0,0.1-0.1,0.2c-0.1,0.1-0.3,0.4-0.6,0.5c-0.6,0.4-1.6,0.7-2.9,1
			c-0.6,0.2-1.3,0.4-1.8,0.7c-0.1,0.1-0.2,0.2-0.3,0.3c0,0,0,0,0,0.1l0,0l0,0c0,0.1,0-0.1,0-0.1l0,0c0,0.1-0.1,0.2-0.1,0.3
			c0,0,0,0.1,0,0.1l0.1,0.2c0.1,0.2,0.1,0.3,0.2,0.5c0.3,0.7,0.8,1.5,1.3,2.5c0.2,0.5,0.5,1,0.7,1.7c0.1,0.3,0.1,0.8,0,1.3l-0.1,0.2
			l0,0.1l0,0c0.1-0.1-0.1,0.2-0.1,0.2l-0.1,0.2l-0.1,0.1c0,0-0.1,0.1-0.1,0.2c-0.1,0.1-0.2,0.2-0.3,0.3c-0.8,0.5-1.3,0.7-2,0.8
			c-0.6,0.2-1.2,0.3-1.8,0.4c-0.5,0.1-1.1,0.3-1.5,0.5c-0.4,0.2-0.1,0.2-0.1,0c0,0.2,0.3,0.8,0.6,1.3c0.3,0.5,0.6,1.1,1,1.7
			c0.2,0.3,0.3,0.7,0.5,1.1c0.1,0.2,0.2,0.4,0.2,0.7l0.1,0.4c0,0.2,0,0.3,0,0.5c0,0.2,0,0.4-0.1,0.6c0,0.1-0.1,0.2-0.1,0.3l0,0.1
			c0.1-0.2-0.2,0.3-0.1,0.3l0,0.1l-0.1,0.2c-0.1,0.2-0.3,0.4-0.5,0.5c-0.6,0.5-1,0.6-1.4,0.8c-0.8,0.3-1.5,0.5-2.2,0.7
			c-0.7,0.2-1.3,0.4-1.7,0.6c-0.1,0-0.1,0.1-0.2,0.1c0,0,0,0,0,0c0,0,0,0,0.1-0.1c0,0,0-0.1,0-0.1c0-0.1-0.1,0.2,0.1-0.3l0,0l0,0.1
			l0,0.1c0,0,0,0.1,0,0c0-0.1,0-0.2,0-0.3c0-0.1,0,0,0,0c0.1,0.2,0.4,0.8,0.8,1.4c0.4,0.6,0.8,1.2,1.3,2c0.2,0.4,0.5,0.9,0.6,1.5
			c0.1,0.4,0.1,0.7,0.1,1.3c0,0.1,0,0.2-0.1,0.4c-0.2,0.5-0.1,0.2-0.1,0.3l0,0l0,0.1l-0.1,0.1c0,0,0,0,0,0.1l-0.1,0.2
			c-0.1,0.2-0.3,0.4-0.5,0.6l-0.4,0.3c-0.2,0.2-0.4,0.3-0.7,0.5c-0.4,0.2-0.8,0.4-1.2,0.6c-0.7,0.3-1.4,0.6-2,0.9
			c-0.3,0.1-0.5,0.3-0.6,0.4c-0.1,0.1-0.1,0.2,0.1-0.3c0,0.3,0-0.5,0-0.4l0,0l0,0.1l0,0.1c0-0.1,0-0.4-0.1-0.5c0-0.1,0,0,0,0
			c0.1,0.1,0.3,0.3,0.6,0.5c0.5,0.4,1.1,0.8,1.8,1.4c0.3,0.3,0.7,0.6,1,1c0.2,0.3,0.4,0.5,0.6,0.9l0.1,0.3c0,0.1,0.1,0.3,0.1,0.4
			c0,0.1,0,0.3,0.1,0.4c0,0-0.1,0.7,0,0.4l0,0l0,0.1l0,0.1c0,0.1-0.1,0.3-0.1,0.4c-0.1,0.3-0.3,0.6-0.4,0.7
			c-0.1,0.1-0.2,0.3-0.3,0.4l-0.3,0.3c-0.4,0.3-0.7,0.6-1,0.8c-0.6,0.4-1.2,0.8-1.7,1.2c-0.3,0.2-0.4,0.3-0.5,0.4c0,0,0,0,0,0
			c0,0,0-0.1,0-0.1c0,0,0-0.1,0-0.3c0,0,0-0.1,0-0.1l0,0c0,0-0.1-0.6-0.1-0.3l0,0.1c0,0,0,0.1,0,0.1c0-0.1,0-0.1-0.1-0.2
			c0-0.1-0.1-0.1-0.1-0.2c0,0,0,0,0,0c0,0,0,0,0,0l0.1,0.1c0.2,0.1,0.4,0.3,0.7,0.4c0.6,0.3,1.2,0.7,1.8,1c0.3,0.2,0.7,0.4,1,0.7
			c0.2,0.1,0.4,0.3,0.6,0.5c0.1,0.1,0.2,0.3,0.3,0.4c0.1,0.1,0.1,0.2,0.1,0.3c0,0.1,0.1,0.2,0.1,0.4c0,0.1,0.1,0.3,0.1,0.4
			c0,0,0,0.6,0,0.3l0,0l0,0.1l0,0.1l0,0l0,0.1l-0.1,0.2c0,0.1-0.1,0.3-0.1,0.4c-0.1,0.1-0.1,0.3-0.2,0.3l-0.3,0.3
			c-0.3,0.4-0.6,0.7-0.9,0.9c-0.6,0.5-1.1,0.8-1.6,1.2c-0.5,0.3-1,0.7-1.2,0.9l-0.1,0.1c0,0,0,0,0,0c0,0,0-0.1,0-0.1l0,0
			c0-0.1,0,0.2,0-0.2l0,0l0,0.1l0,0.1c0,0,0,0,0-0.1c0-0.1,0-0.1-0.1-0.1c0.1,0.1,0.1,0.1,0.1,0.2c0.3,0.3,0.7,0.6,1.2,1
			c0.5,0.3,0.9,0.7,1.4,1c0.2,0.2,0.5,0.4,0.7,0.6c0.1,0.1,0.2,0.2,0.4,0.4c0.1,0.1,0.1,0.1,0.2,0.3c0.1,0.1,0.1,0.2,0.2,0.3
			c0.1,0.1,0.1,0.3,0.1,0.4c0,0.1,0,0.2,0,0.2v0.1c-0.1,0.4,0,0.1,0,0.2l0,0l-0.1,0.2c-0.1,0.1-0.1,0.3-0.2,0.4
			c-0.4,0.5-0.6,0.6-0.9,0.8c-1.1,0.6-2,0.8-2.8,1.1c-0.8,0.3-1.6,0.7-1.6,0.9c0,0.1,0.1,0.5,0.2,0.8c0.1,0.3,0.3,0.6,0.4,0.9
			c0.6,1.1,1.2,2,1.4,2.7c0.1,0.3,0.1,0.6,0.1,0.8c-0.1,0.2-0.1,0.3-0.1,0.3s0-0.1,0.1-0.3c0-0.2,0-0.4-0.2-0.7
			c-0.3-0.6-1-1.3-1.8-2.4c-0.2-0.3-0.4-0.5-0.6-0.9c-0.2-0.3-0.5-0.7-0.5-1.3l0-0.1l0,0v0c0,0,0,0.1,0-0.1l0-0.1
			c0.1-0.2,0.1-0.3,0.2-0.4c0.2-0.2,0.4-0.4,0.6-0.6c0.4-0.3,0.8-0.5,1.2-0.7c0.8-0.4,1.7-0.8,2.4-1.3c0.1-0.1,0.2-0.1,0.2-0.2
			c0,0,0,0,0.1-0.1l0,0c0,0,0,0,0,0c0,0,0,0.1,0,0.1l0-0.2l0,0c0,0.1,0-0.2,0,0.2l0,0c0,0,0,0,0,0c0,0,0,0.1,0,0.1c0,0,0,0-0.1-0.1
			c0,0-0.1-0.1-0.2-0.2c-0.1-0.1-0.3-0.3-0.6-0.4c-0.4-0.3-0.9-0.5-1.4-0.8c-0.5-0.3-1.1-0.6-1.7-1.1c-0.1-0.1-0.3-0.3-0.5-0.5
			c-0.1-0.1-0.2-0.3-0.3-0.5c0-0.1-0.1-0.2-0.1-0.3l0-0.1l0-0.1l0,0c-0.1-0.5,0-0.2,0-0.3l0-0.2c0-0.2,0-0.4,0.1-0.6
			c0.1-0.1,0.1-0.3,0.2-0.4c0.1-0.1,0.1-0.2,0.2-0.3c0.6-0.8,1.1-1.1,1.6-1.6c0.5-0.4,1-0.8,1.4-1.2c0.2-0.2,0.4-0.4,0.4-0.5
			c0,0,0,0,0-0.1c0,0,0,0,0,0.1c0,0,0,0.1,0,0.2c0,0,0,0.1,0,0.1l0,0l0,0l0-0.1l0-0.1l0,0c0-0.3,0,0.3,0,0.3c0,0,0,0.1,0,0.1
			c0,0,0,0.1,0.1,0.1c0,0,0,0,0,0c0,0,0.1,0.1,0,0c0,0-0.1-0.1-0.2-0.1c-0.2-0.1-0.4-0.3-0.7-0.4c-0.6-0.3-1.2-0.6-1.8-0.9
			c-0.3-0.2-0.7-0.4-1.1-0.6l-0.3-0.2c-0.1-0.1-0.2-0.2-0.3-0.3c-0.1-0.1-0.1-0.1-0.2-0.2c-0.1-0.1-0.2-0.3-0.3-0.4
			c-0.1-0.1-0.1-0.3-0.2-0.4c0-0.1,0-0.1-0.1-0.2l0-0.1c0,0.3-0.1-0.4-0.1-0.4l0-0.1l0-0.2c0-0.3,0.1-0.6,0.2-0.8
			c0.2-0.5,0.4-0.7,0.6-1c0.4-0.4,0.7-0.7,1-1c0.6-0.5,1.3-0.9,1.8-1.3c0.3-0.2,0.5-0.4,0.7-0.5l0.1-0.1c0,0,0,0,0,0
			c0.1-0.1-0.1,0.1-0.1,0.2c0,0.1,0,0.2,0,0.2l0-0.1l0-0.1l0,0c0-0.3,0,0.4,0,0.3c0,0.1,0,0.1,0,0.2c0,0.1,0,0.1,0,0.2c0,0,0,0,0,0
			c0.1,0.1,0,0,0,0c-0.1-0.1-0.3-0.3-0.6-0.5c-0.6-0.4-1.2-0.9-1.7-1.3c-0.3-0.3-0.7-0.5-1.1-1c-0.2-0.2-0.4-0.5-0.6-0.9
			c-0.2-0.3-0.3-0.7-0.3-1.1l0-0.1l0-0.1l0,0c0,0.1,0.1-0.7,0-0.4c0.1-0.3,0.2-0.5,0.3-0.8c0.1-0.2,0.2-0.4,0.4-0.5
			c0.1-0.2,0.2-0.3,0.4-0.4c0.1-0.1,0.3-0.2,0.4-0.3c0.2-0.2,0.5-0.3,0.7-0.4c0.2-0.1,0.4-0.2,0.6-0.3c0.8-0.4,1.5-0.7,2.1-0.9
			c0.3-0.1,0.6-0.3,0.8-0.4c0.1-0.1,0.2-0.1,0.2-0.2c0,0,0,0,0.1,0c-0.1,0-0.1,0.1-0.1,0.2c0,0,0,0,0,0.1c0,0,0,0,0,0l0.1-0.1l0-0.1
			l0,0c0,0.1,0.1-0.3-0.1,0.2c0,0,0,0.1,0,0.1c0,0.2,0,0.2,0,0.2c0-0.1-0.1-0.3-0.2-0.5c-0.3-0.5-0.7-1.1-1.1-1.7
			c-0.2-0.3-0.4-0.7-0.6-1c-0.2-0.4-0.4-0.8-0.6-1.4c0-0.2-0.1-0.3-0.1-0.5c0-0.3,0-0.5,0-0.8c0-0.2,0-0.2,0-0.2l0-0.1l0-0.1l0,0
			c0.2-0.6,0.1-0.2,0.1-0.3c0.1-0.1,0.1-0.2,0.2-0.3c0.1-0.2,0.3-0.4,0.4-0.5c0.1-0.1,0.3-0.3,0.4-0.4c0.3-0.2,0.5-0.4,0.8-0.4
			c0.9-0.4,1.7-0.6,2.4-0.7c0.7-0.2,1.3-0.3,1.8-0.5c0.1,0,0.2-0.1,0.3-0.1l0.1,0c0,0,0.1,0,0,0c0,0-0.1,0.1-0.1,0.2l0.1-0.2l0-0.1
			c0-0.1-0.2,0.4-0.1,0.2l0,0c0,0,0,0,0,0.1c0,0.1,0,0.1,0,0.1c0,0,0,0,0,0c0,0,0-0.1,0-0.1c0,0,0-0.2-0.1-0.3
			c-0.1-0.2-0.2-0.5-0.3-0.8c-0.3-0.6-0.6-1.2-0.8-1.8c-0.3-0.7-0.6-1.3-0.7-2.3c0-0.1,0-0.4,0-0.6c0-0.1,0-0.2,0-0.3
			c0-0.1,0-0.1,0-0.1l0-0.1l0-0.1l0,0l0.1-0.2c0.1-0.2,0.2-0.3,0.3-0.4c0.1-0.2,0.2-0.2,0.3-0.3c0.1-0.1,0.2-0.2,0.3-0.3
			c0.2-0.1,0.4-0.2,0.6-0.3c0.8-0.3,1.4-0.4,2-0.5c0.6-0.1,1.2-0.1,1.7-0.2c0.5-0.1,1-0.2,1.2-0.3c0.1,0,0.2,0,0.1-0.4
			c0-0.4-0.2-0.8-0.4-1.3c-0.3-0.9-0.8-1.8-1.1-2.7c-0.1-0.2-0.1-0.5-0.2-0.8c0-0.1,0-0.3,0-0.4c0-0.2,0-0.4,0.1-0.5
			c0-0.1,0.1-0.2,0.1-0.3l0,0c0,0,0.1-0.2,0-0.1l0,0l0.1-0.1l0.1-0.2c0.2-0.2,0.4-0.4,0.6-0.4c0.9-0.4,1.6-0.4,2.2-0.5
			c1.3-0.2,2.3-0.2,2.9-0.5c0.3-0.1,0.5-0.2,0.7-0.4C29.1,132.9,29.2,132.8,29.2,132.8z"/>
		<path id="XMLID_11_" class="st0" d="M37.7,152.9c0,0,0,0.1-0.2,0.1c-0.2,0.1-0.4,0.1-0.7,0c-0.6,0-1.5-0.2-2.6-0.4
			c-0.3,0-0.6-0.1-0.8-0.1c-0.1,0-0.3,0-0.4,0c-0.1,0-0.1,0-0.1,0c0,0,0.1,0,0.2-0.1c0.1-0.2,0-0.1,0.1,0c0.1,0.1,0.1,0.2,0.2,0.4
			c0.2,0.3,0.4,0.6,0.6,0.9c0.2,0.3,0.5,0.6,0.7,1c0.2,0.4,0.5,0.7,0.8,1.2c0.1,0.1,0.1,0.3,0.2,0.5c0,0.1,0,0.1,0,0.2
			c0,0.1,0,0.1,0,0.3c0,0.2-0.1,0.5-0.4,0.7l0,0c-0.1,0-0.1,0.1-0.2,0.1c-0.1,0-0.2,0.1-0.2,0.1l-0.1,0c-0.2,0-0.3,0-0.4,0
			c-0.2,0-0.4,0-0.5,0c-0.6-0.1-1-0.2-1.5-0.4c-0.5-0.1-0.9-0.3-1.4-0.4c-0.2-0.1-0.4-0.1-0.6-0.1c-0.1,0-0.2,0-0.3,0
			c-0.1,0-0.1,0,0,0c0.1,0,0.2,0,0.5-0.2c0,0,0.1-0.1,0.1-0.1c0,0,0.3-0.4,0.1-0.2l0,0c0,0,0,0,0-0.1c0,0,0-0.1,0.1-0.1
			c0-0.1,0-0.2,0-0.3c0-0.3,0-0.2,0-0.2c0,0.1,0.2,0.3,0.3,0.5c0.3,0.4,0.6,0.8,0.9,1.2c0.3,0.5,0.7,0.9,1.1,1.5
			c0.1,0.2,0.2,0.4,0.3,0.8c0,0.2,0.1,0.5-0.1,1.1c0,0.1-0.1,0.1-0.1,0.2c0,0-0.3,0.4-0.2,0.3l0,0c-0.1,0.1-0.5,0.4-0.6,0.4
			c-0.5,0.2-0.8,0.2-1,0.2c-0.2,0-0.4,0-0.6,0c-0.7,0-1.3-0.1-1.9-0.2c-0.6-0.1-1.2-0.2-1.5-0.1c-0.1,0-0.1,0,0,0c0,0,0.1,0,0.2-0.1
			c0.1,0,0.1,0,0.2-0.1c0.1,0,0.2-0.1,0.2-0.2c0.1-0.1,0.2-0.2,0.2-0.3c0-0.1,0.1-0.1,0.1-0.2c0.2-0.6,0.1-0.2,0.1-0.3l0,0
			c0,0,0,0.1,0-0.1c0-0.2,0-0.4,0-0.5l0-0.2l0-0.1c0,0,0-0.1-0.1-0.1c0,0-0.1-0.1-0.1-0.1c0,0,0,0,0,0l0.2,0.2
			c0.3,0.3,0.9,0.6,1.4,1c0.3,0.2,0.5,0.4,0.8,0.6c0.3,0.2,0.6,0.4,0.9,0.8c0.1,0.1,0.2,0.2,0.3,0.4c0.1,0.2,0.3,0.4,0.4,0.9
			c0,0.1,0,0.3,0,0.5c0,0.2,0.1-0.1-0.1,0.5l0,0c0.1-0.1-0.2,0.4-0.4,0.7c-0.1,0.1-0.1,0.1-0.2,0.2c-0.1,0-0.1,0.1-0.2,0.1
			c-0.1,0.1-0.2,0.1-0.3,0.2c-0.6,0.3-0.9,0.4-1.3,0.5c-0.7,0.2-1.3,0.4-1.9,0.5c-0.3,0.1-0.5,0.2-0.8,0.2c-0.1,0-0.2,0.1-0.2,0.1
			c0,0,0,0,0,0c0,0,0.1,0,0.1-0.1c0,0,0.1-0.1,0.2-0.2c0,0,0.1-0.2,0.1-0.3c0-0.1,0.1-0.2,0.1-0.4c0-0.1,0-0.1,0-0.2
			c0-0.2,0,0.2,0-0.5l0,0.1l0,0.1l0,0.1l0,0l0-0.1c0-0.2-0.1-0.3-0.2-0.5c0,0,0,0,0,0l0,0l0,0c0,0,0,0,0,0l0,0c0,0,0,0,0.1,0
			l0.3,0.1c0.4,0.2,1,0.4,1.6,0.6c0.6,0.2,1.2,0.4,2.1,1c0.1,0.1,0.2,0.1,0.3,0.2c0.1,0.1,0.3,0.3,0.4,0.4c0.1,0,0.1,0.2,0.2,0.3
			c0.1,0.1,0.1,0.2,0.2,0.4l0,0.1c0.1,0.2-0.1-0.2,0.1,0.4l0,0.1l0,0.1l0,0.1c0,0,0,0,0,0.1c0,0.1,0,0.3,0,0.4
			c0,0.2-0.1,0.6-0.1,0.7c-0.1,0.3-0.2,0.5-0.2,0.7c-0.4,0.8-0.7,1.4-1.1,1.9c-0.3,0.5-0.7,1-0.8,1.4c-0.1,0.2-0.1,0.3-0.1,0.1
			c0-0.1,0-0.1,0-0.3c0-0.1,0-0.1-0.1-0.2c0,0,0-0.1-0.1-0.1l0,0c0,0-0.5-0.5-0.2-0.3l0.2,0.2c-0.1-0.1-0.2-0.2-0.4-0.3
			c0,0-0.1,0-0.1,0c0,0,0,0,0,0h0c0,0,0,0,0,0c0.1,0,0.1,0,0.3,0c0.2,0,0.5,0,0.7,0c0.6-0.1,1.2-0.1,1.8-0.2l0.5,0l0.6,0
			c0.4,0,0.8,0,1.5,0.2c0.2,0.1,0.3,0.1,0.5,0.3c0.1,0.1,0.2,0.1,0.3,0.2l0.1,0.1c0.1,0.1-0.1-0.2,0.2,0.3l0,0l0.1,0.2
			c0.1,0.2,0.2,0.5,0.3,0.7c0.1,0.8,0,1.1,0,1.5c-0.1,0.7-0.3,1.3-0.5,1.9c-0.2,0.5-0.3,1.1-0.5,1.5c0,0.1-0.1,0.2-0.1,0.3l0,0.1
			c0,0,0,0,0,0.1c0,0.1,0,0,0,0c0,0-0.1-0.1-0.1-0.2l0,0c0.2,0.1-0.3-0.2-0.2-0.2l0,0l0.1,0.1c0.2,0.2,0-0.1-0.1-0.1l0.1,0l0.3,0
			l0.3,0c0.5,0,1-0.1,1.5-0.1c0.5-0.1,1-0.1,1.6-0.1c0.3,0,0.6,0,1,0.1c0.2,0,0.3,0,0.6,0.2c0.1,0,0.2,0.1,0.3,0.2
			c0.1,0.1,0.2,0.2,0.4,0.3l0.1,0.1l0,0c0.1,0.1-0.1-0.2,0.1,0.2l0,0.1c0,0.1,0,0.1,0.1,0.2c0,0.2,0.1,0.3,0.1,0.5
			c0,0.1,0,0.2,0,0.2l0,0.1c-0.1,0.4-0.2,0.7-0.3,0.9c-0.2,0.5-0.5,0.9-0.7,1.3c-0.5,0.7-0.9,1.4-1.2,2c-0.3,0.7-0.3,0.6,0.2,1
			c0.5,0.3,1.1,0.5,1.6,0.7c1,0.4,1.9,0.7,2.4,1.1c0.2,0.2,0.4,0.4,0.4,0.6c0,0.2,0,0.2,0,0.2s0-0.1-0.1-0.2
			c-0.1-0.1-0.3-0.3-0.5-0.4c-0.5-0.2-1.4-0.4-2.5-0.6c-0.6-0.1-1.2-0.2-1.9-0.4c-0.1,0-0.2-0.1-0.3-0.1c-0.1-0.1-0.2-0.1-0.3-0.2
			c-0.1-0.1-0.3-0.2-0.3-0.3l-0.1-0.1l0-0.1c0,0-0.1-0.2-0.1-0.1l0,0l0-0.1c-0.2-0.7-0.1-1.1,0-1.6c0.3-0.9,0.6-1.6,1-2.4
			c0.2-0.4,0.3-0.8,0.4-1.1c0-0.2,0.1-0.3,0.1-0.4l0,0c0,0,0,0,0,0.1c0,0.1,0,0.1,0.1,0.1c0,0,0-0.1-0.1-0.1l0-0.1
			c0.2,0.4,0.1,0.1,0.1,0.2l0,0l0,0c0,0,0.1,0.1,0.1,0.1c0,0,0,0,0,0c0,0-0.1,0-0.1,0c-0.1,0-0.3,0-0.5,0c-0.4,0.1-0.9,0.2-1.4,0.3
			c-0.5,0.1-1,0.2-1.6,0.3c-0.3,0-0.6,0.1-1,0.1c-0.2,0-0.4,0-0.7-0.1c-0.4-0.1-0.9-0.4-0.9-0.4l-0.1-0.1l0,0c0,0-0.4-0.4-0.2-0.2
			l-0.1-0.1c-0.1-0.2-0.2-0.4-0.3-0.5c-0.1-0.3-0.2-0.6-0.2-0.8l0-0.4l0-0.3c0-0.2,0-0.4,0.1-0.5c0.1-0.7,0.2-1.2,0.4-1.8
			c0.1-0.6,0.3-1.1,0.3-1.5c0-0.1,0-0.2,0-0.3c0,0,0,0,0-0.1c0,0,0-0.1,0,0.1c0,0.1,0.1,0.2,0.1,0.3l-0.1-0.2l0,0l0.2,0.3
			c0,0,0,0,0,0.1c0,0,0.1,0.1,0.1,0.1c0.1,0.1,0.1,0.1,0.1,0.1c0.1,0-0.1,0-0.3,0l-0.3,0l-0.4,0c-0.6,0.1-1.2,0.2-1.8,0.3
			c-0.3,0-0.7,0.1-1.1,0.1c-0.4,0-0.8,0.1-1.6-0.2c-0.3-0.1-0.6-0.3-0.8-0.5l-0.2-0.2c0.2,0.2-0.3-0.3-0.3-0.3l-0.1-0.1l-0.1-0.2
			c-0.1-0.1-0.1-0.3-0.2-0.4c-0.1-0.3-0.1-0.5-0.1-0.7c0-0.8,0.2-1.3,0.4-1.6c0.3-0.8,0.7-1.3,1-1.8c0.3-0.5,0.6-1,0.8-1.4
			c0-0.1,0-0.1,0.1-0.2c0-0.1,0,0.1,0,0.2c0,0.1,0,0.1,0,0.2c0,0,0,0,0,0l0-0.1l0-0.1l0-0.1l0.1,0.3l0,0c0,0.1,0.1,0.1,0.1,0.2
			c0,0.1,0.1,0.1,0.1,0.1c0,0,0,0.1,0.1,0.1c0,0,0,0,0,0c-0.2-0.1-0.8-0.4-1.4-0.6c-0.6-0.2-1.2-0.4-1.9-0.8
			c-0.2-0.1-0.4-0.2-0.6-0.3l-0.3-0.2l-0.2-0.1l-0.2-0.2l-0.2-0.2l-0.1-0.1c0,0-0.1-0.1-0.1-0.1c-0.2-0.3-0.4-0.6-0.5-0.9l0-0.1l0,0
			l0-0.1l0-0.1l0-0.1c-0.1-0.7,0-0.4,0-0.6c0-0.1,0-0.2,0-0.3c0-0.2,0.1-0.3,0.2-0.5c0.1-0.1,0.2-0.3,0.2-0.4
			c0.1-0.2,0.3-0.3,0.4-0.4c0.1-0.1,0.2-0.2,0.3-0.2c0.2-0.1,0.3-0.2,0.4-0.2c0.3-0.1,0.4-0.2,0.6-0.3c0.4-0.1,0.7-0.2,1-0.3
			c0.6-0.2,1.3-0.3,1.8-0.4c0.2-0.1,0.5-0.2,0.5-0.2c0,0,0,0-0.1,0l-0.1,0.1c0,0,0,0-0.1,0.1c-0.2,0.2-0.4,0.7-0.3,0.5l0,0
			c-0.2,0.6-0.1,0.3-0.1,0.4c0,0.1,0,0.3,0,0.4c0,0.3,0.2,0.5,0.2,0.5c0,0.1,0,0,0,0c0-0.1-0.2-0.3-0.4-0.4l-0.7-0.5
			c-0.5-0.4-1-0.7-1.5-1.2c-0.1-0.1-0.3-0.3-0.5-0.5c-0.1-0.1-0.2-0.2-0.3-0.4c-0.1-0.1-0.1-0.2-0.2-0.3c0-0.1-0.1-0.2-0.1-0.2
			l0-0.1c0,0,0-0.1,0-0.2c0-0.2,0-0.4,0-0.6l0-0.1l0,0c0-0.1-0.1,0.3,0.1-0.3c0-0.1,0.1-0.2,0.1-0.2c0.1-0.1,0.2-0.3,0.3-0.4
			c0.1-0.1,0.2-0.2,0.3-0.2c0.1-0.1,0.2-0.1,0.3-0.1c0.2-0.1,0.3-0.1,0.4-0.1c0.4-0.1,0.7-0.1,0.9-0.1c0.8,0,1.4,0.2,2,0.3
			c0.6,0.1,1.1,0.2,1.6,0.3c0.1,0,0.2,0,0.3,0c0.1,0,0.1,0-0.1,0.1c-0.1,0-0.4,0.2-0.4,0.3l0,0c0.1-0.2-0.2,0.2-0.2,0.2
			c0,0,0,0.1-0.1,0.1c-0.1,0.4-0.1,0.6-0.1,0.7c0,0.1,0,0.1,0,0c-0.1-0.3-0.4-0.8-0.7-1.2c-0.3-0.4-0.6-0.9-0.9-1.4
			c-0.2-0.3-0.3-0.5-0.5-0.9c-0.1-0.2-0.2-0.4-0.2-0.9c0-0.1,0-0.2,0.1-0.4c0-0.1,0-0.1,0.1-0.2c0-0.1,0.1-0.1,0-0.1l0,0
			c-0.1,0.2,0.1-0.2,0.2-0.2c0,0,0.1-0.1,0.1-0.1c0.4-0.3,0.6-0.4,0.8-0.4c0.4,0,0.6,0,0.8,0c0.2,0,0.3,0.1,0.5,0.1
			c0.3,0.1,0.5,0.2,0.8,0.3c0.5,0.2,0.9,0.4,1.4,0.6c0.4,0.2,0.8,0.3,1.2,0.4l0.2,0c0,0,0,0,0,0l0,0c0,0-0.1,0-0.1,0.1
			c0,0-0.1,0.1-0.1,0.1c0,0,0,0,0,0c-0.2,0.1-0.2,0.3-0.2,0.4c0,0.1,0,0.1,0,0.1c0,0,0,0,0,0c0,0,0-0.1,0-0.1
			c-0.1-0.3-0.3-0.7-0.4-1c-0.2-0.4-0.4-0.7-0.6-1c-0.2-0.3-0.4-0.7-0.5-1c-0.1-0.2-0.2-0.4-0.2-0.6c0-0.1-0.1-0.2-0.1-0.4
			c0-0.1,0-0.2,0-0.3c0-0.2,0.1-0.3,0.1-0.3c0.2-0.3,0.4-0.4,0.6-0.4c0.2,0,0.3,0,0.4,0c0.2,0,0.4,0.1,0.5,0.1
			c0.3,0.1,0.6,0.2,0.9,0.3c1.1,0.4,1.8,0.8,2.4,0.9c0.3,0.1,0.5,0.1,0.6,0.1C37.7,153,37.7,152.9,37.7,152.9z"/>
		<path id="XMLID_10_" class="st0" d="M32.5,142.4c0,0,0,0.1-0.1,0.2c0,0.1-0.1,0.2-0.2,0.3c-0.1,0.1-0.2,0.2-0.3,0.3
			c-0.5,0.4-1.4,0.7-2.5,1.1c-0.5,0.2-1.2,0.4-1.6,0.8c-0.1,0-0.1,0.1-0.1,0.1l0,0.1c0,0,0,0,0,0l0,0l0,0c0,0,0,0.1,0-0.1l0,0l0,0.1
			c0,0.1,0,0.1,0,0.1c0,0,0,0,0,0l0,0.1c0,0.1,0.1,0.1,0.1,0.2c0.1,0.1,0.2,0.3,0.3,0.4c0.4,0.6,1,1.3,1.6,2
			c0.3,0.4,0.6,0.8,0.8,1.5c0.1,0.1,0.1,0.4,0.1,0.7c0,0.1,0,0.3-0.1,0.5l0,0.1l0,0.1c0.1-0.1-0.1,0.2-0.1,0.2l-0.1,0.1
			c0,0.1,0,0.1-0.1,0.2c-0.1,0.1-0.2,0.2-0.4,0.3c-0.1,0-0.1,0.1-0.2,0.1l-0.1,0.1l-0.3,0.1c-0.7,0.2-1.2,0.3-1.8,0.4
			c-0.5,0.1-1.1,0.1-1.6,0.2c-0.5,0.1-1,0.2-1.2,0.3c-0.1,0,0,0,0,0c0.1,0,0.1-0.1,0.1-0.1l0.1-0.3l0,0.1l0,0.1c0,0,0,0.1,0,0.1
			c0,0,0-0.1,0.1-0.1c0,0,0-0.1,0-0.1c0,0,0-0.1,0-0.1c0,0,0,0.1,0.1,0.2c0.1,0.3,0.4,0.8,0.7,1.3c0.3,0.5,0.7,1,1,1.6
			c0.2,0.3,0.4,0.7,0.5,1.2c0,0.1,0.1,0.3,0.1,0.4c0,0.2,0,0.4,0,0.5c0,0.2-0.1,0.5-0.1,0.7l-0.1,0.2l0,0.1
			c-0.3,0.5-0.1,0.2-0.2,0.3l-0.1,0.1l-0.1,0.1c-0.1,0.1-0.2,0.2-0.3,0.3c-0.1,0.1-0.2,0.2-0.3,0.2c-0.1,0.1-0.2,0.2-0.3,0.2
			c-0.2,0.1-0.5,0.2-0.7,0.3c-0.2,0.1-0.4,0.1-0.6,0.2c-0.2,0.1-0.4,0.1-0.5,0.1c-0.7,0.1-1.3,0.2-1.9,0.3c-0.3,0.1-0.6,0.1-0.8,0.2
			c-0.2,0.1-0.4,0.2-0.3,0.1c0.1,0,0.1-0.1,0.1-0.1c0,0,0.1-0.1,0.1-0.2c0,0,0-0.1,0-0.1l0,0c0,0,0.2-0.7,0.1-0.3c0,0.1,0,0.2,0,0.2
			c0.1-0.2,0-0.4,0-0.5c0-0.1,0-0.1,0,0l0,0l0,0c0,0,0,0,0,0.1l0.1,0.1l0.1,0.1c0.3,0.4,0.8,0.8,1.3,1.3c0.2,0.2,0.5,0.5,0.8,0.8
			c0.3,0.3,0.5,0.6,0.8,1.1c0.1,0.1,0.1,0.3,0.2,0.4c0.1,0.2,0.1,0.4,0.2,0.6c0.1,0.2,0.1,0.5,0.1,0.8l0,0.2c-0.2,0.7,0,0.2-0.1,0.4
			l0,0l0,0.1l0,0.1l-0.1,0.2c-0.1,0.1-0.1,0.3-0.2,0.4c-0.1,0.1-0.2,0.3-0.3,0.4l-0.2,0.2c-0.1,0.1-0.2,0.2-0.3,0.3l-0.3,0.2
			c-0.7,0.5-1.3,0.9-1.9,1.2c-0.6,0.3-1.1,0.7-1.3,0.9c-0.1,0.1,0,0,0,0c0,0,0.1-0.1,0.1-0.2c0-0.1,0.1-0.2,0.1-0.4c0,0,0-0.1,0-0.1
			c-0.1-0.5,0-0.1,0-0.2l0,0l0,0c0,0,0-0.1,0-0.1c0-0.1-0.1-0.2-0.1-0.3c-0.1-0.1-0.1-0.1-0.2-0.2c0,0,0,0-0.1-0.1c0,0,0,0,0.1,0.1
			c0.4,0.2,1,0.5,1.7,0.7c0.7,0.3,1.3,0.5,2.2,1.1c0.2,0.1,0.4,0.3,0.7,0.6c0.2,0.3,0.5,0.7,0.7,1.3l0,0.2c0,0.8,0,0.2,0,0.4l0,0
			l0,0.1c0,0,0,0.2-0.1,0.4c0,0.2-0.1,0.4-0.2,0.5c0,0.1-0.1,0.2-0.1,0.2l-0.1,0.1l-0.1,0.2l-0.1,0.2l-0.1,0.1
			c-0.7,0.7-1.2,1.1-1.8,1.5c-0.5,0.4-1,0.8-1.3,1.1l-0.1,0.1c0,0,0,0,0-0.1c0,0,0-0.1,0-0.1l0,0c0,0,0-0.1,0-0.1c0-0.1,0-0.2,0-0.2
			c0,0,0-0.1,0-0.1c-0.2-0.7-0.1-0.2-0.1-0.3l0,0l0,0.1c0,0,0,0.1,0,0c0,0,0-0.1,0-0.1c0-0.1-0.1-0.2-0.2-0.2
			c-0.1-0.1-0.2-0.1-0.1-0.1c0,0,0,0,0,0c0.1,0.1,0.3,0.2,0.6,0.3c0.2,0.1,0.5,0.2,0.8,0.3c0.6,0.2,1.2,0.4,1.9,0.6
			c0.3,0.1,0.8,0.3,1.2,0.7c0.3,0.2,0.6,0.5,0.8,1l0.1,0.2c0-0.2,0.1,0.5,0.1,0.4v0l0,0.1l0,0.1v0l0,0.1c0,0.1,0,0.3-0.1,0.4
			c0,0.1-0.1,0.3-0.1,0.4c0,0.1-0.1,0.1-0.1,0.2l-0.2,0.3c-0.1,0.2-0.3,0.4-0.4,0.5c-0.2,0.3-0.5,0.5-0.7,0.8
			c-0.4,0.4-0.9,0.8-1.3,1.2c-0.2,0.2-0.4,0.4-0.5,0.5l-0.2,0.2c0,0,0,0,0,0c0,0,0,0,0,0c0,0,0,0,0,0c0,0,0,0,0-0.2
			c0-0.1,0-0.1,0-0.2c0,0,0,0,0-0.1c0.1,0.2-0.2-0.3-0.1-0.3l0,0l0.1,0.2c0-0.1-0.1-0.2-0.2-0.2c-0.1-0.1,0.1,0.1,0.3,0.1
			c0.8,0.2,1.9,0.3,3,0.5l0.4,0.1l0.5,0.1c0.3,0.1,0.7,0.2,1.1,0.8c0.1,0.1,0.1,0.1,0.1,0.2c0.1,0.2,0,0.1,0.1,0.1l0,0l0,0l0,0.1
			l0,0.1c0,0.1,0,0.2,0,0.3c0,0.2,0,0.4,0,0.6c-0.1,0.3-0.2,0.6-0.3,0.9c-0.4,1-0.9,1.7-1.3,2.4c-0.2,0.3-0.4,0.7-0.5,1
			c-0.1,0.1-0.1,0.3-0.1,0.3c0,0,0,0,0,0c0,0,0,0,0,0c0.1,0.1-0.1-0.1-0.1-0.1l0,0l0,0l0.1,0.1c0,0,0,0,0,0c0,0,0,0,0,0
			c0,0,0.1,0,0.1,0c0.1,0,0.3,0,0.4,0c0.3-0.1,0.6-0.2,0.8-0.3c1.1-0.4,2-0.8,2.6-1c0.3-0.1,0.6-0.1,0.7-0.1c0.2,0,0.2,0.1,0.2,0.1
			s-0.1,0-0.2,0c-0.2,0-0.4,0.1-0.7,0.2c-0.6,0.3-1.3,0.8-2.3,1.5c-0.3,0.2-0.5,0.3-0.9,0.5c-0.2,0.1-0.4,0.1-0.6,0.2
			c-0.1,0-0.2,0-0.4,0c-0.1,0-0.2,0-0.3-0.1c-0.1,0-0.2-0.1-0.2-0.1l-0.1-0.1l0,0l0,0c0,0-0.2-0.2-0.1-0.1c0,0-0.1-0.1-0.1-0.1
			c-0.1-0.2-0.2-0.4-0.2-0.5c0-0.3,0-0.6,0.1-0.8c0.1-0.4,0.3-0.8,0.4-1.2c0.3-0.8,0.7-1.6,0.9-2.4c0.1-0.2,0.1-0.4,0.1-0.5
			c0-0.1,0-0.1,0-0.1c0,0.2,0,0,0,0.2c0.2,0.2,0,0.1-0.1,0l-0.3,0l-0.3,0c-0.5,0-1,0-1.5-0.1c-0.5,0-1.1,0-1.8-0.1
			c-0.4-0.1-0.7-0.1-1.3-0.5c-0.2-0.1-0.4-0.3-0.5-0.5l-0.1-0.2l0,0c0,0.1-0.2-0.5-0.1-0.3l0-0.2c0-0.1,0-0.2-0.1-0.4
			c0-0.3,0-0.4,0.1-0.6l0.1-0.3c0-0.1,0-0.1,0.1-0.2l0.2-0.3c0.1-0.2,0.2-0.3,0.3-0.5c0.2-0.3,0.4-0.5,0.6-0.8
			c0.4-0.4,0.8-0.9,1.2-1.3c0.2-0.2,0.3-0.4,0.5-0.6c0.1-0.1,0.1-0.2,0.1-0.2c0,0,0,0,0-0.1c0,0,0,0,0,0c0,0.1,0,0.1-0.1,0.2
			c0,0.1,0,0.1,0,0.2l0,0l0,0l0-0.1l0-0.1l0,0c0-0.1,0.1,0.6,0.1,0.3c0,0,0,0.1,0,0.1c0.1,0.3,0.2,0.3,0.2,0.3c0,0-0.2-0.1-0.4-0.2
			c-0.5-0.2-1.1-0.3-1.7-0.4c-0.3-0.1-0.6-0.2-1-0.3c-0.4-0.1-0.7-0.2-1.2-0.5c-0.1-0.1-0.3-0.2-0.4-0.3c0,0-0.2-0.1-0.3-0.3
			c-0.1-0.1-0.2-0.3-0.3-0.4c0-0.1-0.1-0.1-0.1-0.2l0-0.1l-0.1-0.1l0,0c-0.1-0.2,0.1,0.4-0.1-0.4l0-0.2c0-0.2,0-0.3,0-0.5
			c0-0.1,0-0.2,0-0.2l0-0.2c0-0.1,0.1-0.2,0.1-0.3c0.1-0.2,0.2-0.4,0.2-0.5c0.2-0.3,0.3-0.5,0.5-0.6c0.6-0.7,1.2-1.1,1.7-1.5
			c0.5-0.4,1-0.8,1.3-1.1l0,0l0,0l0,0l0,0c0,0,0,0.1-0.1,0.1c0,0.1-0.1,0.2-0.1,0.3c0,0.1,0,0.3,0,0.2l0-0.1l0,0c0,0.2,0-0.4,0,0.4
			c0,0,0,0.1,0,0.1c0.1,0.3,0.2,0.4,0.2,0.4c0,0,0,0-0.1-0.1c-0.3-0.2-0.9-0.4-1.5-0.7c-0.6-0.3-1.2-0.5-2.1-0.9
			c-0.2-0.1-0.4-0.3-0.8-0.5c-0.1-0.1-0.2-0.2-0.3-0.2c-0.1-0.1-0.2-0.2-0.3-0.4c-0.1-0.1-0.1-0.3-0.2-0.4c0-0.1-0.1-0.2-0.1-0.2
			l0,0l0,0c0-0.1,0,0.2,0-0.3l0-0.2c0-0.3,0.1-0.7,0.1-0.9c0.1-0.2,0.2-0.4,0.3-0.6c0.2-0.3,0.4-0.6,0.6-0.7c0.8-0.7,1.4-1,2-1.4
			c0.6-0.3,1.2-0.7,1.5-0.9l0.1-0.1c0,0,0,0,0.1,0l0,0c0,0-0.1,0.1-0.1,0.1c0,0.1-0.1,0.1-0.1,0.2c0,0,0,0.1,0,0.1l0-0.1l0-0.1l0,0
			c0,0.1,0.1-0.4-0.1,0.3c0,0,0,0.1,0,0.1c0,0.1,0,0.3,0,0.3c0,0,0,0.1,0,0.1c0,0,0,0,0,0c0-0.1-0.2-0.3-0.4-0.5
			c-0.2-0.2-0.4-0.4-0.6-0.7c-0.5-0.5-1-0.9-1.5-1.6l-0.2-0.3l-0.2-0.3c-0.1-0.1-0.1-0.2-0.2-0.4l-0.1-0.2l0-0.1c0,0,0-0.1-0.1-0.2
			c-0.1-0.3-0.1-0.7-0.1-1c0-0.1,0-0.2,0-0.3c-0.1,0.3,0.1-0.4,0.1-0.4l0-0.1l0.1-0.2c0.1-0.1,0.2-0.3,0.2-0.4
			c0.2-0.2,0.3-0.3,0.5-0.5c0.6-0.4,1.1-0.6,1.5-0.7c0.4-0.1,0.8-0.2,1.1-0.2c0.6-0.1,1.3-0.2,1.9-0.2c0.1,0,0.3,0,0.4-0.1
			c0.1,0,0.2,0,0.3-0.1c0.1,0,0.1,0,0.2-0.1c0,0,0,0-0.1,0c0,0-0.1,0.1-0.1,0.1c0,0-0.1,0.1-0.1,0.1l0.1-0.1l0.1-0.1
			c-0.1,0.1,0.2-0.3-0.1,0.2l0,0c0,0,0,0,0,0.1c0,0.1,0,0.2,0,0.2c0,0,0,0.1,0,0.1c0,0,0,0,0-0.1c0-0.1-0.1-0.3-0.2-0.5
			c-0.2-0.5-0.5-1-0.8-1.5c-0.3-0.6-0.6-1.1-0.9-1.9c-0.1-0.2-0.1-0.4-0.2-0.7c0,0,0-0.2,0-0.3c0-0.1,0-0.2,0-0.3
			c0-0.1,0-0.2,0.1-0.3c0-0.1,0-0.1,0-0.1l0-0.1l0-0.1c0,0,0.2-0.5,0.1-0.3l0-0.1c0.1-0.2,0.3-0.3,0.4-0.5c0.2-0.2,0.6-0.4,0.7-0.4
			c0.9-0.3,1.5-0.3,2-0.3c0.5,0,1.1,0,1.6,0c0.5,0,1,0,1.3-0.1l0.1,0l0,0c0,0,0,0,0,0c0,0-0.1,0.1-0.1,0.1c0,0,0.1-0.1,0.1-0.1
			l0.1-0.1c0,0-0.2,0.3-0.1,0.2l0,0l0,0c0,0,0,0.1,0,0.1c0,0,0,0,0-0.1c0-0.2-0.2-0.6-0.4-1c-0.4-0.8-0.9-1.5-1.3-2.3
			c-0.1-0.2-0.2-0.4-0.3-0.6c0-0.1-0.1-0.2-0.1-0.4l0-0.2c0-0.1,0-0.2,0-0.3c0-0.2,0-0.4,0-0.4l0-0.1l0,0c0.1-0.2,0-0.1,0-0.1l0-0.1
			l0.1-0.1c0-0.1,0.1-0.1,0.1-0.2l0.2-0.1c0.1-0.1,0.2-0.2,0.3-0.2c0.8-0.4,1.4-0.5,2-0.6c1.2-0.2,2.1-0.4,2.6-0.6
			c0.1-0.1,0.3-0.1,0.4-0.2c0.1-0.1,0.2-0.1,0.2-0.2C32.5,142.5,32.5,142.4,32.5,142.4z"/>
		<path id="XMLID_9_" class="st0" d="M51.9,122.8c0,0,0,0.1-0.1,0.2c0,0.1-0.1,0.1-0.2,0.2c-0.1,0.1-0.2,0.2-0.4,0.2
			c-0.6,0.3-1.5,0.6-2.7,0.9c-0.6,0.2-1.2,0.3-1.7,0.6c-0.1,0-0.1,0.1-0.1,0.1l-0.1,0c0,0,0,0,0,0l0,0l0,0c0,0,0,0.1,0-0.1l0,0
			l0,0.1c0,0.1,0,0.1,0,0.1c0,0,0,0,0,0l0,0.1c0,0.1,0,0.1,0.1,0.2c0.1,0.1,0.1,0.3,0.2,0.5c0.4,0.7,0.9,1.4,1.4,2.2
			c0.3,0.4,0.5,0.9,0.7,1.6c0,0.2,0,0.5,0,0.7c0,0.1-0.1,0.3-0.1,0.4l0,0.1l0,0.1c0.1-0.1-0.2,0.2-0.1,0.2l-0.1,0.1
			c-0.1,0.1-0.1,0.1-0.2,0.2c-0.1,0.1-0.3,0.2-0.4,0.3c-0.1,0-0.2,0.1-0.2,0.1l-0.1,0l-0.3,0.1c-0.7,0.2-1.3,0.2-1.8,0.2
			c-0.5,0-1.1,0-1.6,0c-0.5,0-1,0.1-1.2,0.1c-0.1,0,0,0,0,0c0.1,0,0.1-0.1,0.2-0.1l0.1-0.3l0,0.1l0,0.1c0,0,0,0.1,0,0.1
			c0,0,0-0.1,0.1-0.1c0,0,0-0.1,0-0.1c0,0,0-0.1,0-0.1c0,0,0,0.1,0.1,0.2c0.1,0.3,0.3,0.8,0.6,1.3c0.3,0.5,0.6,1.1,0.8,1.7
			c0.1,0.3,0.3,0.7,0.4,1.2c0,0.1,0,0.3,0.1,0.4c0,0.2,0,0.4,0,0.5c0,0.2-0.1,0.5-0.2,0.7l-0.1,0.2l0,0.1c-0.4,0.5-0.1,0.1-0.2,0.3
			l-0.1,0.1l-0.1,0.1c-0.1,0.1-0.2,0.2-0.3,0.2c-0.1,0.1-0.2,0.1-0.3,0.2c-0.1,0.1-0.2,0.1-0.3,0.1c-0.2,0.1-0.5,0.2-0.7,0.2
			c-0.2,0.1-0.4,0.1-0.6,0.1c-0.2,0-0.4,0-0.6,0.1c-0.7,0.1-1.4,0.1-1.9,0.1c-0.3,0-0.6,0-0.8,0.1c-0.2,0-0.4,0.1-0.3,0.1
			c0.1,0,0.1-0.1,0.2-0.1c0.1,0,0.1-0.1,0.1-0.2c0,0,0-0.1,0-0.1l0,0c0,0,0.2-0.6,0.1-0.3c0,0.1,0,0.2,0,0.2c0.1-0.2,0.1-0.4,0-0.5
			c0-0.1,0-0.1,0-0.1l0,0l0,0c0,0,0,0,0,0.1l0.1,0.1l0.1,0.1c0.3,0.4,0.7,0.9,1.1,1.4c0.2,0.3,0.5,0.5,0.7,0.9
			c0.2,0.3,0.5,0.7,0.7,1.2c0.1,0.1,0.1,0.3,0.2,0.4c0.1,0.2,0.1,0.4,0.1,0.6c0,0.2,0,0.5,0,0.8l0,0.2c-0.2,0.7-0.1,0.2-0.1,0.4l0,0
			l-0.1,0.1l0,0.1l-0.1,0.2c-0.1,0.1-0.2,0.3-0.3,0.4c-0.1,0.1-0.2,0.2-0.3,0.3l-0.2,0.1c-0.1,0.1-0.2,0.2-0.3,0.3l-0.3,0.2
			c-0.8,0.5-1.4,0.7-2,1c-0.6,0.3-1.2,0.5-1.4,0.7c-0.1,0.1,0,0,0,0c0,0,0.1-0.1,0.1-0.2c0-0.1,0.1-0.2,0.1-0.4c0,0,0-0.1,0-0.1
			c0-0.5,0-0.1,0-0.2l0,0l0,0c0,0,0-0.1,0-0.2c0-0.1-0.1-0.2-0.1-0.3c-0.1-0.1-0.1-0.2-0.1-0.2c0,0,0-0.1-0.1-0.1c0,0,0,0,0.1,0.1
			c0.3,0.2,1,0.6,1.6,0.9c0.6,0.3,1.3,0.7,2,1.3c0.2,0.2,0.4,0.4,0.6,0.7c0.2,0.3,0.5,0.7,0.6,1.3l0,0.2c-0.1,0.8,0,0.2,0,0.4l0,0
			l0,0.1c0,0-0.1,0.2-0.1,0.4c-0.1,0.2-0.2,0.3-0.2,0.5c0,0.1-0.1,0.2-0.1,0.2l-0.1,0.1l-0.2,0.2l-0.2,0.2l-0.1,0.1
			c-0.7,0.6-1.3,0.9-1.9,1.3c-0.6,0.3-1.1,0.7-1.4,0.9l-0.1,0.1c0,0,0,0,0-0.1c0,0,0-0.1,0-0.1l0,0l0-0.1c0-0.1,0-0.1,0-0.2
			c0,0,0-0.1,0-0.1c0,0-0.1-0.7-0.1-0.4l0,0l0,0.1c0,0,0,0.1,0,0c0,0,0-0.1,0-0.1c0-0.1-0.1-0.2-0.1-0.2c0-0.1-0.2-0.2-0.1-0.1
			c0,0,0,0,0,0c0.1,0.1,0.3,0.2,0.5,0.3c0.2,0.1,0.5,0.2,0.8,0.4c0.6,0.2,1.2,0.5,1.8,0.8c0.3,0.2,0.7,0.4,1.1,0.8
			c0.2,0.3,0.5,0.5,0.7,1.1l0.1,0.2c0-0.3,0,0.5,0,0.4l0,0l0,0.1l0,0.1l0,0l0,0.1c0,0.1-0.1,0.3-0.1,0.4c0,0.1-0.1,0.3-0.2,0.4
			c-0.1,0.1-0.1,0.1-0.1,0.2l-0.2,0.3c-0.1,0.2-0.3,0.3-0.4,0.5c-0.3,0.3-0.5,0.5-0.8,0.7c-0.5,0.4-0.9,0.7-1.4,1.1
			c-0.2,0.2-0.4,0.3-0.6,0.5l-0.2,0.2c0,0,0,0,0,0c0,0,0,0,0,0c0,0,0,0,0,0c0,0,0,0,0-0.2c0-0.1,0-0.1,0-0.2c0,0,0,0,0-0.1
			c0.1,0.2-0.1-0.3-0.1-0.3l0,0l0.1,0.2c0-0.1-0.1-0.2-0.2-0.3c-0.1-0.1,0.1,0.1,0.3,0.1c0.4,0.2,0.9,0.3,1.4,0.4
			c0.5,0.1,1,0.3,1.6,0.4l0.4,0.1l0.4,0.2c0.3,0.2,0.7,0.3,1.1,0.9c0,0.1,0.1,0.1,0.1,0.2c0,0,0.1,0.2,0,0.1l0,0l0,0l0,0.1l0,0.1
			c0,0.1,0,0.2,0,0.3c0,0.2,0,0.4-0.1,0.6c-0.1,0.3-0.2,0.6-0.4,0.8c-0.5,0.9-1.1,1.6-1.6,2.2c-0.2,0.3-0.4,0.6-0.6,0.9
			c-0.1,0.1-0.1,0.3-0.1,0.3c0,0,0,0,0,0c0,0,0,0,0,0c0.1,0.1-0.1-0.1-0.1-0.1l0,0l0,0l0.1,0.1c0,0.1,0,0,0,0c0,0,0,0,0,0
			c0,0,0.1,0,0.1,0c0.1,0,0.3,0,0.4,0c0.3,0,0.6-0.1,0.9-0.2c1.1-0.3,2-0.6,2.7-0.7c0.3-0.1,0.6,0,0.7,0c0.2,0.1,0.2,0.1,0.2,0.1
			s-0.1,0-0.2,0c-0.2,0-0.4,0.1-0.7,0.2c-0.6,0.2-1.4,0.7-2.5,1.2c-0.3,0.1-0.6,0.3-0.9,0.4c-0.2,0.1-0.4,0.1-0.6,0.1
			c-0.1,0-0.2,0-0.4,0c-0.1,0-0.2-0.1-0.3-0.1c-0.1,0-0.2-0.1-0.2-0.1l-0.1-0.1l0,0l0,0c0,0-0.2-0.2-0.1-0.1c0,0-0.1-0.1-0.1-0.1
			c-0.1-0.2-0.1-0.4-0.1-0.5c0-0.3,0.1-0.6,0.1-0.8c0.1-0.4,0.3-0.8,0.5-1.2c0.4-0.8,0.9-1.5,1.1-2.3c0.1-0.2,0.1-0.4,0.1-0.5
			c0-0.1,0-0.1,0-0.1c0,0.2,0,0,0,0.2c0.1,0.2,0,0.1-0.1,0l-0.3-0.1l-0.3-0.1c-0.4-0.1-0.9-0.1-1.5-0.2c-0.5-0.1-1.1-0.1-1.7-0.3
			c-0.3-0.1-0.7-0.2-1.2-0.6c-0.2-0.2-0.3-0.3-0.5-0.5l-0.1-0.2l0,0c0,0.1-0.2-0.5-0.1-0.3l0-0.2c0-0.1,0-0.2,0-0.4
			c0-0.3,0.1-0.4,0.1-0.6l0.1-0.2l0.1-0.2l0.2-0.3c0.1-0.2,0.2-0.3,0.4-0.5c0.2-0.3,0.5-0.5,0.7-0.7c0.4-0.4,0.9-0.8,1.3-1.2
			c0.2-0.2,0.4-0.4,0.5-0.5c0.1-0.1,0.1-0.2,0.2-0.2c0,0,0,0,0-0.1c0,0,0-0.1,0,0c0,0-0.1,0.1-0.1,0.2c0,0.1,0,0.1,0,0.2l0,0l0,0
			l0-0.1l0-0.1l0,0c0-0.1,0,0.6,0,0.3c0,0,0,0.1,0,0.1c0.1,0.3,0.1,0.3,0.2,0.4c0,0-0.2-0.1-0.4-0.2c-0.4-0.2-1-0.4-1.6-0.6
			c-0.3-0.1-0.6-0.2-1-0.4c-0.3-0.1-0.7-0.3-1.1-0.6c-0.1-0.1-0.2-0.2-0.4-0.3c0,0-0.2-0.2-0.3-0.3c-0.1-0.1-0.2-0.3-0.3-0.4
			c0-0.1-0.1-0.2-0.1-0.2l0-0.1l0-0.1l0,0c0.1,0.3-0.1-0.5-0.1-0.4l0-0.2c0-0.2,0-0.3,0.1-0.5c0-0.1,0-0.2,0.1-0.2l0.1-0.2
			c0-0.1,0.1-0.2,0.1-0.3c0.1-0.2,0.2-0.3,0.3-0.5c0.2-0.3,0.4-0.4,0.6-0.6c0.7-0.6,1.3-1,1.8-1.3c0.5-0.3,1.1-0.7,1.4-1l0.1,0l0,0
			l0,0l0,0c0,0-0.1,0.1-0.1,0.1c-0.1,0.1-0.1,0.2-0.1,0.3c0,0.1,0,0.3,0,0.2l0-0.1l0,0c0,0.2,0-0.4,0,0.4c0,0,0,0.1,0,0.1
			c0,0.3,0.1,0.4,0.1,0.4c0,0,0,0-0.1-0.1c-0.3-0.2-0.8-0.5-1.4-0.8c-0.6-0.3-1.2-0.6-2-1.1c-0.2-0.1-0.4-0.3-0.7-0.6
			c-0.1-0.1-0.2-0.2-0.2-0.3c-0.1-0.1-0.2-0.2-0.3-0.4c-0.1-0.1-0.1-0.3-0.2-0.5c0-0.1,0-0.2,0-0.2l0,0l0,0c0-0.1,0,0.2,0-0.3l0-0.2
			c0-0.3,0.1-0.6,0.2-0.8c0.1-0.2,0.2-0.4,0.4-0.6c0.2-0.3,0.5-0.5,0.7-0.7c0.9-0.6,1.5-0.9,2.2-1.2c0.6-0.3,1.2-0.5,1.6-0.8
			l0.1-0.1c0,0,0,0,0.1,0l0,0c0,0-0.1,0.1-0.1,0.1c0,0.1-0.1,0.1-0.1,0.2c0,0,0,0.1,0,0.1l0-0.1l0.1-0.1l0,0c0,0.1,0.1-0.3-0.1,0.3
			c0,0,0,0.1,0,0.1c0,0.1,0,0.3,0,0.3c0,0,0,0.1,0,0.1c0,0,0,0,0,0c0-0.1-0.2-0.3-0.3-0.5c-0.2-0.2-0.3-0.5-0.5-0.7
			c-0.4-0.5-0.8-1-1.3-1.7l-0.2-0.3l-0.2-0.3c-0.1-0.1-0.1-0.2-0.2-0.4l-0.1-0.2l0-0.1c0,0,0-0.1,0-0.2c-0.1-0.3-0.1-0.7,0-1
			c0-0.1,0-0.2,0.1-0.3c-0.1,0.3,0.1-0.4,0.1-0.4l0.1-0.1l0.1-0.2c0.1-0.1,0.2-0.2,0.3-0.3c0.2-0.2,0.4-0.3,0.5-0.4
			c0.7-0.4,1.2-0.4,1.6-0.5c0.4-0.1,0.8-0.1,1.1-0.1c0.6,0,1.3,0,1.9,0c0.1,0,0.3,0,0.4,0c0.1,0,0.2,0,0.3,0c0.1,0,0.1,0,0.2,0
			c0,0,0,0-0.1,0c0,0-0.1,0.1-0.1,0.1c0,0-0.1,0.1-0.1,0.1l0.1-0.1l0.1-0.1c-0.1,0.1,0.2-0.3-0.2,0.2l0,0c0,0,0,0,0,0.1
			c-0.1,0.1-0.1,0.2-0.1,0.2c0,0,0,0.1,0,0.1c0,0,0,0,0-0.1c0-0.1-0.1-0.3-0.1-0.6c-0.2-0.5-0.4-1-0.6-1.6c-0.2-0.6-0.5-1.2-0.7-2
			c0-0.2-0.1-0.5-0.1-0.7c0,0,0-0.2,0-0.3c0-0.1,0-0.2,0.1-0.3c0-0.1,0.1-0.2,0.1-0.3c0-0.1,0-0.1,0.1-0.1l0-0.1l0,0
			c0,0,0.3-0.4,0.2-0.3l0.1-0.1c0.1-0.2,0.3-0.3,0.5-0.4c0.3-0.1,0.6-0.3,0.8-0.3c0.9-0.2,1.5-0.1,2.1-0.1c0.5,0.1,1.1,0.1,1.6,0.2
			c0.5,0,1,0.1,1.3,0l0.1,0l0,0c0,0,0,0,0,0c0,0-0.1,0.1-0.1,0.1c0,0,0.1-0.1,0.1-0.1l0.1-0.1c0,0-0.2,0.3-0.1,0.2l0,0l0,0
			c0,0,0,0.1,0,0.1c0,0,0,0,0-0.1c0-0.2-0.2-0.7-0.3-1c-0.3-0.8-0.8-1.6-1.1-2.4c-0.1-0.2-0.2-0.4-0.2-0.7c0-0.1-0.1-0.2-0.1-0.4
			l0-0.2c0-0.1,0-0.2,0-0.3c0-0.2,0-0.4,0.1-0.4l0-0.1l0,0c0.1-0.2,0-0.1,0.1-0.1l0-0.1l0.1-0.1c0.1-0.1,0.1-0.1,0.2-0.2l0.2-0.1
			c0.1-0.1,0.2-0.1,0.3-0.2c0.8-0.3,1.5-0.3,2.1-0.4c1.2-0.1,2.1-0.1,2.7-0.3c0.1,0,0.3-0.1,0.4-0.2c0.1-0.1,0.2-0.1,0.2-0.2
			C51.8,122.9,51.9,122.8,51.9,122.8z"/>
	</g>
	<g id="XMLID_3_">
		<path id="XMLID_7_" class="st0" d="M123.3,132.8c0,0,0,0.1,0.1,0.2c0.1,0.1,0.3,0.4,0.6,0.5c0.6,0.4,1.6,0.7,2.9,1
			c0.6,0.2,1.3,0.4,1.8,0.7c0.1,0.1,0.2,0.2,0.3,0.3c0,0,0,0,0,0.1l0,0l0,0c0,0.1,0-0.1,0-0.1l0,0c0,0.1,0.1,0.2,0.1,0.3
			c0,0,0,0.1,0,0.1l-0.1,0.2c-0.1,0.2-0.1,0.3-0.2,0.5c-0.3,0.7-0.8,1.5-1.3,2.5c-0.2,0.5-0.5,1-0.7,1.7c-0.1,0.3-0.1,0.8,0,1.3
			l0.1,0.2l0,0.1l0,0c-0.1-0.1,0.1,0.2,0.1,0.2l0.1,0.2l0.1,0.1c0,0,0.1,0.1,0.1,0.2c0.1,0.1,0.2,0.2,0.3,0.3c0.8,0.5,1.3,0.7,2,0.8
			c0.6,0.2,1.2,0.3,1.8,0.4c0.5,0.1,1.1,0.3,1.5,0.5c0.4,0.2,0.1,0.2,0.1,0c0,0.2-0.3,0.8-0.6,1.3c-0.3,0.5-0.6,1.1-1,1.7
			c-0.2,0.3-0.3,0.7-0.5,1.1c-0.1,0.2-0.2,0.4-0.2,0.7l-0.1,0.4c0,0.2,0,0.3,0,0.5c0,0.2,0,0.4,0.1,0.6c0,0.1,0.1,0.2,0.1,0.3l0,0.1
			c-0.1-0.2,0.2,0.3,0.1,0.3l0,0.1l0.1,0.2c0.1,0.2,0.3,0.4,0.5,0.5c0.6,0.5,1,0.6,1.4,0.8c0.8,0.3,1.5,0.5,2.2,0.7
			c0.7,0.2,1.3,0.4,1.7,0.6c0.1,0,0.1,0.1,0.2,0.1c0,0,0,0,0,0c0,0,0,0-0.1-0.1c0,0,0-0.1,0-0.1c0-0.1,0.1,0.2-0.1-0.3l0,0l0,0.1
			l0,0.1c0,0,0,0.1,0,0c0-0.1,0-0.2,0-0.3c0-0.1,0,0,0,0c-0.1,0.2-0.4,0.8-0.8,1.4c-0.4,0.6-0.8,1.2-1.3,2c-0.2,0.4-0.5,0.9-0.6,1.5
			c-0.1,0.4-0.1,0.7-0.1,1.3c0,0.1,0,0.2,0.1,0.4c0.2,0.5,0.1,0.2,0.1,0.3l0,0l0,0.1l0.1,0.1c0,0,0,0,0,0.1l0.1,0.2
			c0.1,0.2,0.3,0.4,0.5,0.6l0.4,0.3c0.2,0.2,0.4,0.3,0.7,0.5c0.4,0.2,0.8,0.4,1.2,0.6c0.7,0.3,1.4,0.6,2,0.9
			c0.3,0.1,0.5,0.3,0.6,0.4c0.1,0.1,0.1,0.2-0.1-0.3c0,0.3,0-0.5,0-0.4l0,0l0,0.1l0,0.1c0-0.1,0-0.4,0.1-0.5c0-0.1,0,0,0,0
			c-0.1,0.1-0.3,0.3-0.6,0.5c-0.5,0.4-1.1,0.8-1.8,1.4c-0.3,0.3-0.7,0.6-1,1c-0.2,0.3-0.4,0.5-0.6,0.9l-0.1,0.3
			c0,0.1-0.1,0.3-0.1,0.4c0,0.1,0,0.3-0.1,0.4c0,0,0.1,0.7,0,0.4l0,0l0,0.1l0,0.1c0,0.1,0.1,0.3,0.1,0.4c0.1,0.3,0.3,0.6,0.4,0.7
			c0.1,0.1,0.2,0.3,0.3,0.4l0.3,0.3c0.4,0.3,0.7,0.6,1,0.8c0.6,0.4,1.2,0.8,1.7,1.2c0.3,0.2,0.4,0.3,0.5,0.4c0,0,0,0,0,0
			c0,0,0-0.1,0-0.1c0,0,0-0.1,0-0.3c0,0,0-0.1,0-0.1l0,0c0,0,0.1-0.6,0.1-0.3l0,0.1c0,0,0,0.1,0,0.1c0-0.1,0-0.1,0.1-0.2
			c0-0.1,0.1-0.1,0.1-0.2c0,0,0,0,0,0c0,0,0,0,0,0l-0.1,0.1c-0.2,0.1-0.4,0.3-0.7,0.4c-0.6,0.3-1.2,0.7-1.8,1
			c-0.3,0.2-0.7,0.4-1,0.7c-0.2,0.1-0.4,0.3-0.6,0.5c-0.1,0.1-0.2,0.3-0.3,0.4c-0.1,0.1-0.1,0.2-0.1,0.3c0,0.1-0.1,0.2-0.1,0.4
			c0,0.1-0.1,0.3-0.1,0.4c0,0,0,0.6,0,0.3l0,0l0,0.1l0,0.1l0,0l0,0.1l0.1,0.2c0,0.1,0.1,0.3,0.1,0.4c0.1,0.1,0.1,0.3,0.2,0.3
			l0.3,0.3c0.3,0.4,0.6,0.7,0.9,0.9c0.6,0.5,1.1,0.8,1.6,1.2c0.5,0.3,1,0.7,1.2,0.9l0.1,0.1c0,0,0,0,0,0c0,0,0-0.1,0-0.1l0,0
			c0-0.1,0,0.2,0-0.2l0,0l0,0.1l0,0.1c0,0,0,0,0-0.1c0-0.1,0-0.1,0.1-0.1c-0.1,0.1-0.1,0.1-0.1,0.2c-0.3,0.3-0.7,0.6-1.2,1
			c-0.5,0.3-0.9,0.7-1.4,1c-0.2,0.2-0.5,0.4-0.7,0.6c-0.1,0.1-0.2,0.2-0.4,0.4c-0.1,0.1-0.1,0.1-0.2,0.3c-0.1,0.1-0.1,0.2-0.2,0.3
			c-0.1,0.1-0.1,0.3-0.1,0.4c0,0.1,0,0.2,0,0.2v0.1c0.1,0.4,0,0.1,0,0.2l0,0l0.1,0.2c0.1,0.1,0.1,0.3,0.2,0.4
			c0.4,0.5,0.6,0.6,0.9,0.8c1.1,0.6,2,0.8,2.8,1.1c0.8,0.3,1.6,0.7,1.6,0.9c0,0.1-0.1,0.5-0.2,0.8c-0.1,0.3-0.3,0.6-0.4,0.9
			c-0.6,1.1-1.2,2-1.4,2.7c-0.1,0.3-0.1,0.6-0.1,0.8c0.1,0.2,0.1,0.3,0.1,0.3s0-0.1-0.1-0.3c0-0.2,0-0.4,0.2-0.7
			c0.3-0.6,1-1.3,1.8-2.4c0.2-0.3,0.4-0.5,0.6-0.9c0.2-0.3,0.5-0.7,0.5-1.3l0-0.1l0,0v0c0,0,0,0.1,0-0.1l0-0.1
			c-0.1-0.2-0.1-0.3-0.2-0.4c-0.2-0.2-0.4-0.4-0.6-0.6c-0.4-0.3-0.8-0.5-1.2-0.7c-0.8-0.4-1.7-0.8-2.4-1.3c-0.1-0.1-0.2-0.1-0.2-0.2
			c0,0,0,0-0.1-0.1l0,0c0,0,0,0,0,0c0,0,0,0.1,0,0.1l0-0.2l0,0c0,0.1,0-0.2,0,0.2l0,0c0,0,0,0,0,0c0,0,0,0.1,0,0.1c0,0,0,0,0.1-0.1
			c0,0,0.1-0.1,0.2-0.2c0.1-0.1,0.3-0.3,0.6-0.4c0.4-0.3,0.9-0.5,1.4-0.8c0.5-0.3,1.1-0.6,1.7-1.1c0.1-0.1,0.3-0.3,0.5-0.5
			c0.1-0.1,0.2-0.3,0.3-0.5c0-0.1,0.1-0.2,0.1-0.3l0-0.1l0-0.1l0,0c0.1-0.5,0-0.2,0-0.3l0-0.2c0-0.2,0-0.4-0.1-0.6
			c-0.1-0.1-0.1-0.3-0.2-0.4c-0.1-0.1-0.1-0.2-0.2-0.3c-0.6-0.8-1.1-1.1-1.6-1.6c-0.5-0.4-1-0.8-1.4-1.2c-0.2-0.2-0.4-0.4-0.4-0.5
			c0,0,0,0,0-0.1c0,0,0,0,0,0.1c0,0,0,0.1,0,0.2c0,0,0,0.1,0,0.1l0,0l0,0l0-0.1l0-0.1l0,0c0-0.3,0,0.3,0,0.3c0,0,0,0.1,0,0.1
			c0,0,0,0.1-0.1,0.1c0,0,0,0,0,0c0,0-0.1,0.1,0,0c0,0,0.1-0.1,0.2-0.1c0.2-0.1,0.4-0.3,0.7-0.4c0.6-0.3,1.2-0.6,1.8-0.9
			c0.3-0.2,0.7-0.4,1.1-0.6l0.3-0.2c0.1-0.1,0.2-0.2,0.3-0.3c0.1-0.1,0.1-0.1,0.2-0.2c0.1-0.1,0.2-0.3,0.3-0.4
			c0.1-0.1,0.1-0.3,0.2-0.4c0-0.1,0-0.1,0.1-0.2l0-0.1c0,0.3,0.1-0.4,0.1-0.4l0-0.1l0-0.2c0-0.3-0.1-0.6-0.2-0.8
			c-0.2-0.5-0.4-0.7-0.6-1c-0.4-0.4-0.7-0.7-1-1c-0.6-0.5-1.3-0.9-1.8-1.3c-0.3-0.2-0.5-0.4-0.7-0.5l-0.1-0.1c0,0,0,0,0,0
			c-0.1-0.1,0.1,0.1,0.1,0.2c0,0.1,0,0.2,0,0.2l0-0.1l0-0.1l0,0c0-0.3,0,0.4,0,0.3c0,0.1,0,0.1,0,0.2c0,0.1,0,0.1,0,0.2c0,0,0,0,0,0
			c-0.1,0.1,0,0,0,0c0.1-0.1,0.3-0.3,0.6-0.5c0.6-0.4,1.2-0.9,1.7-1.3c0.3-0.3,0.7-0.5,1.1-1c0.2-0.2,0.4-0.5,0.6-0.9
			c0.2-0.3,0.3-0.7,0.3-1.1l0-0.1l0-0.1l0,0c0,0.1-0.1-0.7,0-0.4c-0.1-0.3-0.2-0.5-0.3-0.8c-0.1-0.2-0.2-0.4-0.4-0.5
			c-0.1-0.2-0.2-0.3-0.4-0.4c-0.1-0.1-0.3-0.2-0.4-0.3c-0.2-0.2-0.5-0.3-0.7-0.4c-0.2-0.1-0.4-0.2-0.6-0.3c-0.8-0.4-1.5-0.7-2.1-0.9
			c-0.3-0.1-0.6-0.3-0.8-0.4c-0.1-0.1-0.2-0.1-0.2-0.2c0,0,0,0-0.1,0c0.1,0,0.1,0.1,0.1,0.2c0,0,0,0,0,0.1c0,0,0,0,0,0l-0.1-0.1
			l0-0.1l0,0c0,0.1-0.1-0.3,0.1,0.2c0,0,0,0.1,0,0.1c0,0.2,0,0.2,0,0.2c0-0.1,0.1-0.3,0.2-0.5c0.3-0.5,0.7-1.1,1.1-1.7
			c0.2-0.3,0.4-0.7,0.6-1c0.2-0.4,0.4-0.8,0.6-1.4c0-0.2,0.1-0.3,0.1-0.5c0-0.3,0-0.5,0-0.8c0-0.2,0-0.2,0-0.2l0-0.1l0-0.1l0,0
			c-0.2-0.6-0.1-0.2-0.1-0.3c-0.1-0.1-0.1-0.2-0.2-0.3c-0.1-0.2-0.3-0.4-0.4-0.5c-0.1-0.1-0.3-0.3-0.4-0.4c-0.3-0.2-0.5-0.4-0.8-0.4
			c-0.9-0.4-1.7-0.6-2.4-0.7c-0.7-0.2-1.3-0.3-1.8-0.5c-0.1,0-0.2-0.1-0.3-0.1l-0.1,0c0,0-0.1,0,0,0c0,0,0.1,0.1,0.1,0.2l-0.1-0.2
			l0-0.1c0-0.1,0.2,0.4,0.1,0.2l0,0c0,0,0,0,0,0.1c0,0.1,0,0.1,0,0.1c0,0,0,0,0,0c0,0,0-0.1,0-0.1c0,0,0-0.2,0.1-0.3
			c0.1-0.2,0.2-0.5,0.3-0.8c0.3-0.6,0.6-1.2,0.8-1.8c0.3-0.7,0.6-1.3,0.7-2.3c0-0.1,0-0.4,0-0.6c0-0.1,0-0.2,0-0.3
			c0-0.1,0-0.1,0-0.1l0-0.1l0-0.1l0,0l-0.1-0.2c-0.1-0.2-0.2-0.3-0.3-0.4c-0.1-0.2-0.2-0.2-0.3-0.3c-0.1-0.1-0.2-0.2-0.3-0.3
			c-0.2-0.1-0.4-0.2-0.6-0.3c-0.8-0.3-1.4-0.4-2-0.5c-0.6-0.1-1.2-0.1-1.7-0.2c-0.5-0.1-1-0.2-1.2-0.3c-0.1,0-0.2,0-0.1-0.4
			c0-0.4,0.2-0.8,0.4-1.3c0.3-0.9,0.8-1.8,1.1-2.7c0.1-0.2,0.1-0.5,0.2-0.8c0-0.1,0-0.3,0-0.4c0-0.2,0-0.4-0.1-0.5
			c0-0.1-0.1-0.2-0.1-0.3l0,0c0,0-0.1-0.2,0-0.1l0,0L130,135l-0.1-0.2c-0.2-0.2-0.4-0.4-0.6-0.4c-0.9-0.4-1.6-0.4-2.2-0.5
			c-1.3-0.2-2.3-0.2-2.9-0.5c-0.3-0.1-0.5-0.2-0.7-0.4C123.3,132.9,123.3,132.8,123.3,132.8z"/>
		<path id="XMLID_6_" class="st0" d="M114.7,152.9c0,0,0,0.1,0.2,0.1c0.2,0.1,0.4,0.1,0.7,0c0.6,0,1.5-0.2,2.6-0.4
			c0.3,0,0.6-0.1,0.8-0.1c0.1,0,0.3,0,0.4,0c0.1,0,0.1,0,0.1,0c0,0-0.1,0-0.2-0.1c-0.1-0.2,0-0.1-0.1,0c-0.1,0.1-0.1,0.2-0.2,0.4
			c-0.2,0.3-0.4,0.6-0.6,0.9c-0.2,0.3-0.5,0.6-0.7,1c-0.2,0.4-0.5,0.7-0.8,1.2c-0.1,0.1-0.1,0.3-0.2,0.5c0,0.1,0,0.1,0,0.2
			c0,0.1,0,0.1,0,0.3c0,0.2,0.1,0.5,0.4,0.7l0,0c0.1,0,0.1,0.1,0.2,0.1c0.1,0,0.2,0.1,0.2,0.1l0.1,0c0.2,0,0.3,0,0.4,0
			c0.2,0,0.4,0,0.5,0c0.6-0.1,1-0.2,1.5-0.4c0.5-0.1,0.9-0.3,1.4-0.4c0.2-0.1,0.4-0.1,0.6-0.1c0.1,0,0.2,0,0.3,0c0.1,0,0.1,0,0,0
			c-0.1,0-0.2,0-0.5-0.2c0,0-0.1-0.1-0.1-0.1c0,0-0.3-0.4-0.1-0.2l0,0c0,0,0,0,0-0.1c0,0,0-0.1-0.1-0.1c0-0.1,0-0.2,0-0.3
			c0-0.3,0-0.2,0-0.2c0,0.1-0.2,0.3-0.3,0.5c-0.3,0.4-0.6,0.8-0.9,1.2c-0.3,0.5-0.7,0.9-1.1,1.5c-0.1,0.2-0.2,0.4-0.3,0.8
			c0,0.2-0.1,0.5,0.1,1.1c0,0.1,0.1,0.1,0.1,0.2c0,0,0.3,0.4,0.2,0.3l0,0c0.1,0.1,0.5,0.4,0.6,0.4c0.5,0.2,0.8,0.2,1,0.2
			c0.2,0,0.4,0,0.6,0c0.7,0,1.3-0.1,1.9-0.2c0.6-0.1,1.2-0.2,1.5-0.1c0.1,0,0.1,0,0,0c0,0-0.1,0-0.2-0.1c-0.1,0-0.1,0-0.2-0.1
			c-0.1,0-0.2-0.1-0.2-0.2c-0.1-0.1-0.2-0.2-0.2-0.3c0-0.1-0.1-0.1-0.1-0.2c-0.2-0.6-0.1-0.2-0.1-0.3l0,0c0,0,0,0.1,0-0.1
			c0-0.2,0-0.4,0-0.5l0-0.2l0-0.1c0,0,0-0.1,0.1-0.1c0,0,0.1-0.1,0.1-0.1c0,0,0,0,0,0l-0.2,0.2c-0.3,0.3-0.9,0.6-1.4,1
			c-0.3,0.2-0.5,0.4-0.8,0.6c-0.3,0.2-0.6,0.4-0.9,0.8c-0.1,0.1-0.2,0.2-0.3,0.4c-0.1,0.2-0.3,0.4-0.4,0.9c0,0.1,0,0.3,0,0.5
			c0,0.2-0.1-0.1,0.1,0.5l0,0c-0.1-0.1,0.2,0.4,0.4,0.7c0.1,0.1,0.1,0.1,0.2,0.2c0.1,0,0.1,0.1,0.2,0.1c0.1,0.1,0.2,0.1,0.3,0.2
			c0.6,0.3,0.9,0.4,1.3,0.5c0.7,0.2,1.3,0.4,1.9,0.5c0.3,0.1,0.5,0.2,0.8,0.2c0.1,0,0.2,0.1,0.2,0.1c0,0,0,0,0,0c0,0-0.1,0-0.1-0.1
			c0,0-0.1-0.1-0.2-0.2c0,0-0.1-0.2-0.1-0.3c0-0.1-0.1-0.2-0.1-0.4c0-0.1,0-0.1,0-0.2c0-0.2,0,0.2,0-0.5l0,0.1l0,0.1l0,0.1l0,0
			l0-0.1c0-0.2,0.1-0.3,0.2-0.5c0,0,0,0,0,0l0,0l0,0c0,0,0,0,0,0l0,0c0,0,0,0-0.1,0l-0.3,0.1c-0.4,0.2-1,0.4-1.6,0.6
			c-0.6,0.2-1.2,0.4-2.1,1c-0.1,0.1-0.2,0.1-0.3,0.2c-0.1,0.1-0.3,0.3-0.4,0.4c-0.1,0-0.2,0.2-0.2,0.3c-0.1,0.1-0.1,0.2-0.2,0.4
			l0,0.1c-0.1,0.2,0.1-0.2-0.1,0.4l0,0.1l0,0.1l0,0.1c0,0,0,0,0,0.1c0,0.1,0,0.3,0,0.4c0,0.2,0.1,0.6,0.1,0.7
			c0.1,0.3,0.2,0.5,0.2,0.7c0.4,0.8,0.7,1.4,1.1,1.9c0.3,0.5,0.7,1,0.8,1.4c0.1,0.2,0.1,0.3,0.1,0.1c0-0.1,0-0.1,0-0.3
			c0-0.1,0-0.1,0.1-0.2c0,0,0-0.1,0.1-0.1l0,0c0,0,0.5-0.5,0.2-0.3l-0.2,0.2c0.1-0.1,0.2-0.2,0.4-0.3c0,0,0.1,0,0.1,0c0,0,0,0,0,0h0
			c0,0,0,0,0,0c-0.1,0-0.1,0-0.3,0c-0.2,0-0.5,0-0.7,0c-0.6-0.1-1.2-0.1-1.8-0.2l-0.5,0l-0.6,0c-0.4,0-0.8,0-1.5,0.2
			c-0.2,0.1-0.3,0.1-0.5,0.3c-0.1,0.1-0.2,0.1-0.3,0.2l-0.1,0.1c-0.1,0.1,0.1-0.2-0.3,0.3l0,0l-0.1,0.2c-0.1,0.2-0.2,0.5-0.3,0.7
			c-0.1,0.8,0,1.1,0,1.5c0.1,0.7,0.3,1.3,0.5,1.9c0.2,0.5,0.3,1.1,0.5,1.5c0,0.1,0.1,0.2,0.1,0.3l0,0.1c0,0,0,0,0,0.1c0,0.1,0,0,0,0
			c0,0,0.1-0.1,0.1-0.2l0,0c-0.2,0.1,0.3-0.2,0.2-0.2l0,0l-0.1,0.1c-0.2,0.2,0-0.1,0.1-0.1l-0.1,0l-0.3,0l-0.3,0
			c-0.5,0-1-0.1-1.5-0.1c-0.5-0.1-1-0.1-1.6-0.1c-0.3,0-0.6,0-1,0.1c-0.2,0-0.3,0-0.6,0.2c-0.1,0-0.2,0.1-0.3,0.2
			c-0.1,0.1-0.2,0.2-0.4,0.3l-0.1,0.1l0,0c-0.1,0.1,0.1-0.2-0.1,0.2l0,0.1c0,0.1,0,0.1-0.1,0.2c0,0.2-0.1,0.3-0.1,0.5
			c0,0.1,0,0.2,0,0.2l0,0.1c0.1,0.4,0.2,0.7,0.3,0.9c0.2,0.5,0.5,0.9,0.7,1.3c0.5,0.7,0.9,1.4,1.2,2c0.3,0.7,0.3,0.6-0.2,1
			c-0.5,0.3-1.1,0.5-1.6,0.7c-1,0.4-1.9,0.7-2.4,1.1c-0.2,0.2-0.4,0.4-0.4,0.6c0,0.2,0,0.2,0,0.2s0-0.1,0.1-0.2
			c0.1-0.1,0.3-0.3,0.5-0.4c0.5-0.2,1.4-0.4,2.5-0.6c0.6-0.1,1.2-0.2,1.9-0.4c0.1,0,0.2-0.1,0.3-0.1c0.1-0.1,0.2-0.1,0.3-0.2
			c0.1-0.1,0.3-0.2,0.3-0.3l0.1-0.1l0-0.1c0,0,0.1-0.2,0.1-0.1l0,0l0-0.1c0.2-0.7,0.1-1.1,0-1.6c-0.3-0.9-0.6-1.6-1-2.4
			c-0.2-0.4-0.3-0.8-0.4-1.1c0-0.2-0.1-0.3-0.1-0.4l0,0c0,0,0,0,0,0.1c0,0.1,0,0.1-0.1,0.1c0,0,0-0.1,0.1-0.1l0-0.1
			c-0.2,0.4-0.1,0.1-0.1,0.2l0,0l0,0c0,0-0.1,0.1-0.1,0.1c0,0,0,0,0,0c0,0,0.1,0,0.1,0c0.1,0,0.3,0,0.5,0c0.4,0.1,0.9,0.2,1.4,0.3
			c0.5,0.1,1,0.2,1.6,0.3c0.3,0,0.6,0.1,1,0.1c0.2,0,0.4,0,0.7-0.1c0.4-0.1,0.9-0.4,0.9-0.4l0.1-0.1l0,0c0,0,0.4-0.4,0.2-0.2
			l0.1-0.1c0.1-0.2,0.2-0.4,0.3-0.5c0.1-0.3,0.2-0.6,0.2-0.8l0-0.4l0-0.3c0-0.2,0-0.4-0.1-0.5c-0.1-0.7-0.2-1.2-0.4-1.8
			c-0.1-0.6-0.3-1.1-0.3-1.5c0-0.1,0-0.2,0-0.3c0,0,0,0,0-0.1c0,0,0-0.1,0,0.1c0,0.1-0.1,0.2-0.1,0.3l0.1-0.2l0,0l-0.2,0.3
			c0,0,0,0,0,0.1c0,0-0.1,0.1-0.1,0.1c-0.1,0.1-0.1,0.1-0.1,0.1c-0.1,0,0.1,0,0.3,0l0.3,0l0.4,0c0.6,0.1,1.2,0.2,1.8,0.3
			c0.3,0,0.7,0.1,1.1,0.1c0.4,0,0.8,0.1,1.6-0.2c0.3-0.1,0.6-0.3,0.8-0.5l0.2-0.2c-0.2,0.2,0.3-0.3,0.3-0.3l0.1-0.1l0.1-0.2
			c0.1-0.1,0.1-0.3,0.2-0.4c0.1-0.3,0.1-0.5,0.1-0.7c0-0.8-0.2-1.3-0.4-1.6c-0.3-0.8-0.7-1.3-1-1.8c-0.3-0.5-0.6-1-0.8-1.4
			c0-0.1,0-0.1-0.1-0.2c0-0.1,0,0.1,0,0.2c0,0.1,0,0.1,0,0.2c0,0,0,0,0,0l0-0.1l0-0.1l0-0.1l-0.1,0.3l0,0c0,0.1-0.1,0.1-0.1,0.2
			c0,0.1-0.1,0.1-0.1,0.1c0,0,0,0.1-0.1,0.1c0,0,0,0,0,0c0.2-0.1,0.8-0.4,1.4-0.6c0.6-0.2,1.2-0.4,1.9-0.8c0.2-0.1,0.4-0.2,0.6-0.3
			l0.3-0.2l0.2-0.1l0.2-0.2l0.2-0.2l0.1-0.1c0,0,0.1-0.1,0.1-0.1c0.2-0.3,0.4-0.6,0.5-0.9l0-0.1l0,0l0-0.1l0-0.1l0-0.1
			c0.1-0.7,0-0.4,0-0.6c0-0.1,0-0.2,0-0.3c0-0.2-0.1-0.3-0.2-0.5c-0.1-0.1-0.2-0.3-0.2-0.4c-0.1-0.2-0.3-0.3-0.4-0.4
			c-0.1-0.1-0.2-0.2-0.3-0.2c-0.2-0.1-0.3-0.2-0.4-0.2c-0.3-0.1-0.4-0.2-0.6-0.3c-0.4-0.1-0.7-0.2-1-0.3c-0.6-0.2-1.3-0.3-1.8-0.4
			c-0.2-0.1-0.5-0.2-0.5-0.2c0,0,0,0,0.1,0l0.1,0.1c0,0,0,0,0.1,0.1c0.2,0.2,0.4,0.7,0.3,0.5l0,0c0.2,0.6,0.1,0.3,0.1,0.4
			c0,0.1,0,0.3,0,0.4c0,0.3-0.2,0.5-0.2,0.5c0,0.1,0,0,0,0c0-0.1,0.2-0.3,0.4-0.4l0.7-0.5c0.5-0.4,1-0.7,1.5-1.2
			c0.1-0.1,0.3-0.3,0.5-0.5c0.1-0.1,0.2-0.2,0.3-0.4c0.1-0.1,0.1-0.2,0.2-0.3c0-0.1,0.1-0.2,0.1-0.2l0-0.1c0,0,0-0.1,0-0.2
			c0-0.2,0-0.4,0-0.6l0-0.1l0,0c0-0.1,0.1,0.3-0.1-0.3c0-0.1-0.1-0.2-0.1-0.2c-0.1-0.1-0.2-0.3-0.3-0.4c-0.1-0.1-0.2-0.2-0.3-0.2
			c-0.1-0.1-0.2-0.1-0.3-0.1c-0.2-0.1-0.3-0.1-0.4-0.1c-0.4-0.1-0.7-0.1-0.9-0.1c-0.8,0-1.4,0.2-2,0.3c-0.6,0.1-1.1,0.2-1.6,0.3
			c-0.1,0-0.2,0-0.3,0c-0.1,0-0.1,0,0.1,0.1c0.1,0,0.4,0.2,0.4,0.3l0,0c-0.1-0.2,0.2,0.2,0.2,0.2c0,0,0.1,0.1,0.1,0.1
			c0.1,0.4,0.1,0.6,0.1,0.7c0,0.1,0,0.1,0,0c0.1-0.3,0.4-0.8,0.7-1.2c0.3-0.4,0.6-0.9,0.9-1.4c0.2-0.3,0.3-0.5,0.5-0.9
			c0.1-0.2,0.2-0.4,0.2-0.9c0-0.1,0-0.2-0.1-0.4c0-0.1,0-0.1-0.1-0.2c0-0.1-0.1-0.1,0-0.1l0,0c0.1,0.2-0.1-0.2-0.2-0.2
			c0,0-0.1-0.1-0.1-0.1c-0.4-0.3-0.6-0.4-0.8-0.4c-0.4,0-0.6,0-0.8,0c-0.2,0-0.3,0.1-0.5,0.1c-0.3,0.1-0.5,0.2-0.8,0.3
			c-0.5,0.2-0.9,0.4-1.4,0.6c-0.4,0.2-0.8,0.3-1.2,0.4l-0.2,0c0,0,0,0,0,0l0,0c0,0,0.1,0,0.1,0.1c0,0,0.1,0.1,0.1,0.1c0,0,0,0,0,0
			c0.2,0.1,0.2,0.3,0.2,0.4c0,0.1,0,0.1,0,0.1c0,0,0,0,0,0c0,0,0-0.1,0-0.1c0.1-0.3,0.3-0.7,0.4-1c0.2-0.4,0.4-0.7,0.6-1
			c0.2-0.3,0.4-0.7,0.5-1c0.1-0.2,0.2-0.4,0.2-0.6c0-0.1,0.1-0.2,0.1-0.4c0-0.1,0-0.2,0-0.3c0-0.2-0.1-0.3-0.1-0.3
			c-0.2-0.3-0.4-0.4-0.6-0.4c-0.2,0-0.3,0-0.4,0c-0.2,0-0.4,0.1-0.5,0.1c-0.3,0.1-0.6,0.2-0.9,0.3c-1.1,0.4-1.8,0.8-2.4,0.9
			c-0.3,0.1-0.5,0.1-0.6,0.1C114.8,153,114.7,152.9,114.7,152.9z"/>
		<path id="XMLID_5_" class="st0" d="M119.9,142.4c0,0,0,0.1,0.1,0.2c0,0.1,0.1,0.2,0.2,0.3c0.1,0.1,0.2,0.2,0.3,0.3
			c0.5,0.4,1.4,0.7,2.5,1.1c0.5,0.2,1.2,0.4,1.6,0.8c0.1,0,0.1,0.1,0.1,0.1l0,0.1c0,0,0,0,0,0l0,0l0,0c0,0,0,0.1,0-0.1l0,0l0,0.1
			c0,0.1,0,0.1,0,0.1c0,0,0,0,0,0l0,0.1c0,0.1-0.1,0.1-0.1,0.2c-0.1,0.1-0.2,0.3-0.3,0.4c-0.4,0.6-1,1.3-1.6,2
			c-0.3,0.4-0.6,0.8-0.8,1.5c-0.1,0.1-0.1,0.4-0.1,0.7c0,0.1,0,0.3,0.1,0.5l0,0.1l0,0.1c-0.1-0.1,0.1,0.2,0.1,0.2l0.1,0.1
			c0,0.1,0,0.1,0.1,0.2c0.1,0.1,0.2,0.2,0.4,0.3c0.1,0,0.1,0.1,0.2,0.1l0.1,0.1l0.3,0.1c0.7,0.2,1.2,0.3,1.8,0.4
			c0.5,0.1,1.1,0.1,1.6,0.2c0.5,0.1,1,0.2,1.2,0.3c0.1,0,0,0,0,0c-0.1,0-0.1-0.1-0.1-0.1l-0.1-0.3l0,0.1l0,0.1c0,0,0,0.1,0,0.1
			c0,0,0-0.1-0.1-0.1c0,0,0-0.1,0-0.1c0,0,0-0.1,0-0.1c0,0,0,0.1-0.1,0.2c-0.1,0.3-0.4,0.8-0.7,1.3c-0.3,0.5-0.7,1-1,1.6
			c-0.2,0.3-0.4,0.7-0.5,1.2c0,0.1-0.1,0.3-0.1,0.4c0,0.2,0,0.4,0,0.5c0,0.2,0.1,0.5,0.1,0.7l0.1,0.2l0,0.1c0.3,0.5,0.1,0.2,0.2,0.3
			l0.1,0.1l0.1,0.1c0.1,0.1,0.2,0.2,0.3,0.3c0.1,0.1,0.2,0.2,0.3,0.2c0.1,0.1,0.2,0.2,0.3,0.2c0.2,0.1,0.5,0.2,0.7,0.3
			c0.2,0.1,0.4,0.1,0.6,0.2c0.2,0.1,0.4,0.1,0.5,0.1c0.7,0.1,1.3,0.2,1.9,0.3c0.3,0.1,0.6,0.1,0.8,0.2c0.2,0.1,0.4,0.2,0.3,0.1
			c-0.1,0-0.1-0.1-0.1-0.1c0,0-0.1-0.1-0.1-0.2c0,0,0-0.1,0-0.1l0,0c0,0-0.2-0.7-0.1-0.3c0,0.1,0,0.2,0,0.2c-0.1-0.2,0-0.4,0-0.5
			c0-0.1,0-0.1,0,0l0,0l0,0c0,0,0,0,0,0.1l-0.1,0.1l-0.1,0.1c-0.3,0.4-0.8,0.8-1.3,1.3c-0.2,0.2-0.5,0.5-0.8,0.8
			c-0.3,0.3-0.5,0.6-0.8,1.1c-0.1,0.1-0.1,0.3-0.2,0.4c-0.1,0.2-0.1,0.4-0.2,0.6c-0.1,0.2-0.1,0.5-0.1,0.8l0,0.2
			c0.1,0.7,0,0.2,0.1,0.4l0,0l0,0.1l0,0.1l0.1,0.2c0.1,0.1,0.1,0.3,0.2,0.4c0.1,0.1,0.2,0.3,0.3,0.4l0.2,0.2
			c0.1,0.1,0.2,0.2,0.3,0.3l0.3,0.2c0.7,0.5,1.3,0.9,1.9,1.2c0.6,0.3,1.1,0.7,1.3,0.9c0.1,0.1,0,0,0,0c0,0-0.1-0.1-0.1-0.2
			c0-0.1-0.1-0.2-0.1-0.4c0,0,0-0.1,0-0.1c0.1-0.5,0-0.1,0-0.2l0,0l0,0c0,0,0-0.1,0-0.1c0-0.1,0.1-0.2,0.1-0.3
			c0.1-0.1,0.1-0.1,0.2-0.2c0,0,0,0,0.1-0.1c0,0,0,0-0.1,0.1c-0.4,0.2-1,0.5-1.7,0.7c-0.7,0.3-1.3,0.5-2.2,1.1
			c-0.2,0.1-0.4,0.3-0.7,0.6c-0.2,0.3-0.5,0.7-0.7,1.3l0,0.2c0,0.8,0,0.2,0,0.4l0,0l0,0.1c0,0,0,0.2,0.1,0.4c0,0.2,0.1,0.4,0.2,0.5
			c0,0.1,0.1,0.2,0.1,0.2l0.1,0.1l0.1,0.2l0.1,0.2l0.1,0.1c0.7,0.7,1.2,1.1,1.8,1.5c0.5,0.4,1,0.8,1.3,1.1l0.1,0.1c0,0,0,0,0-0.1
			c0,0,0-0.1,0-0.1l0,0c0,0,0-0.1,0-0.1c0-0.1,0-0.2,0-0.2c0,0,0-0.1,0-0.1c0.2-0.7,0.1-0.2,0.1-0.3l0,0l0,0.1c0,0,0,0.1,0,0
			c0,0,0-0.1,0-0.1c0-0.1,0.1-0.2,0.2-0.2c0.1-0.1,0.2-0.1,0.1-0.1c0,0,0,0,0,0c-0.1,0.1-0.3,0.2-0.6,0.3c-0.2,0.1-0.5,0.2-0.8,0.3
			c-0.6,0.2-1.2,0.4-1.9,0.6c-0.3,0.1-0.8,0.3-1.2,0.7c-0.3,0.2-0.6,0.5-0.8,1l-0.1,0.2c0-0.2-0.1,0.5-0.1,0.4v0l0,0.1l0,0.1v0
			l0,0.1c0,0.1,0,0.3,0.1,0.4c0,0.1,0.1,0.3,0.1,0.4c0,0.1,0.1,0.1,0.1,0.2l0.2,0.3c0.1,0.2,0.3,0.4,0.4,0.5
			c0.2,0.3,0.5,0.5,0.7,0.8c0.4,0.4,0.9,0.8,1.3,1.2c0.2,0.2,0.4,0.4,0.5,0.5l0.2,0.2c0,0,0,0,0,0c0,0,0,0,0,0c0,0,0,0,0,0
			c0,0,0,0,0-0.2c0-0.1,0-0.1,0-0.2c0,0,0,0,0-0.1c-0.1,0.2,0.2-0.3,0.1-0.3l0,0l-0.1,0.2c0-0.1,0.1-0.2,0.2-0.2
			c0.1-0.1-0.1,0.1-0.3,0.1c-0.8,0.2-1.9,0.3-3,0.5l-0.4,0.1l-0.5,0.1c-0.3,0.1-0.7,0.2-1.1,0.8c-0.1,0.1-0.1,0.1-0.1,0.2
			c-0.1,0.2,0,0.1-0.1,0.1l0,0l0,0l0,0.1l0,0.1c0,0.1,0,0.2,0,0.3c0,0.2,0,0.4,0,0.6c0.1,0.3,0.2,0.6,0.3,0.9c0.4,1,0.9,1.7,1.3,2.4
			c0.2,0.3,0.4,0.7,0.5,1c0.1,0.1,0.1,0.3,0.1,0.3c0,0,0,0,0,0c0,0,0,0,0,0c-0.1,0.1,0.1-0.1,0.1-0.1l0,0l0,0l-0.1,0.1c0,0,0,0,0,0
			c0,0,0,0,0,0c0,0-0.1,0-0.1,0c-0.1,0-0.3,0-0.4,0c-0.3-0.1-0.6-0.2-0.8-0.3c-1.1-0.4-2-0.8-2.6-1c-0.3-0.1-0.6-0.1-0.7-0.1
			c-0.2,0-0.2,0.1-0.2,0.1s0.1,0,0.2,0c0.2,0,0.4,0.1,0.7,0.2c0.6,0.3,1.3,0.8,2.3,1.5c0.3,0.2,0.5,0.3,0.9,0.5
			c0.2,0.1,0.4,0.1,0.6,0.2c0.1,0,0.2,0,0.4,0c0.1,0,0.2,0,0.3-0.1c0.1,0,0.2-0.1,0.2-0.1l0.1-0.1l0,0l0,0c0,0,0.2-0.2,0.1-0.1
			c0,0,0.1-0.1,0.1-0.1c0.1-0.2,0.2-0.4,0.2-0.5c0-0.3,0-0.6-0.1-0.8c-0.1-0.4-0.3-0.8-0.4-1.2c-0.3-0.8-0.7-1.6-0.9-2.4
			c0-0.2-0.1-0.4-0.1-0.5c0-0.1,0-0.1,0-0.1c0,0.2,0,0,0,0.2c-0.2,0.2,0,0.1,0.1,0l0.3,0l0.3,0c0.5,0,1,0,1.5-0.1
			c0.5,0,1.1,0,1.8-0.1c0.4-0.1,0.7-0.1,1.3-0.5c0.2-0.1,0.4-0.3,0.5-0.5l0.1-0.2l0,0c0,0.1,0.2-0.5,0.1-0.3l0-0.2
			c0-0.1,0-0.2,0.1-0.4c0-0.3,0-0.4-0.1-0.6l-0.1-0.3c0-0.1,0-0.1-0.1-0.2l-0.2-0.3c-0.1-0.2-0.2-0.3-0.3-0.5
			c-0.2-0.3-0.4-0.5-0.6-0.8c-0.4-0.4-0.8-0.9-1.2-1.3c-0.2-0.2-0.3-0.4-0.5-0.6c-0.1-0.1-0.1-0.2-0.2-0.2c0,0,0,0,0-0.1
			c0,0,0,0,0,0c0,0.1,0,0.1,0.1,0.2c0,0.1,0,0.1,0,0.2l0,0l0,0l0-0.1l0-0.1l0,0c0-0.1-0.1,0.6-0.1,0.3c0,0,0,0.1,0,0.1
			c-0.1,0.3-0.2,0.3-0.2,0.3c0,0,0.2-0.1,0.4-0.2c0.5-0.2,1.1-0.3,1.7-0.4c0.3-0.1,0.6-0.2,1-0.3c0.4-0.1,0.7-0.2,1.2-0.5
			c0.1-0.1,0.3-0.2,0.4-0.3c0,0,0.2-0.1,0.3-0.3c0.1-0.1,0.2-0.3,0.3-0.4c0-0.1,0.1-0.1,0.1-0.2l0-0.1l0.1-0.1l0,0
			c0.1-0.2-0.1,0.4,0.1-0.4l0-0.2c0-0.2,0-0.3,0-0.5c0-0.1,0-0.2,0-0.2l0-0.2c0-0.1-0.1-0.2-0.1-0.3c-0.1-0.2-0.2-0.4-0.2-0.5
			c-0.2-0.3-0.3-0.5-0.5-0.6c-0.6-0.7-1.2-1.1-1.7-1.5c-0.5-0.4-1-0.8-1.3-1.1l0,0l0,0l0,0l0,0c0,0,0,0.1,0.1,0.1
			c0,0.1,0.1,0.2,0.1,0.3c0,0.1,0,0.3,0,0.2l0-0.1l0,0c0,0.2,0-0.4,0,0.4c0,0,0,0.1,0,0.1c-0.1,0.3-0.2,0.4-0.2,0.4c0,0,0,0,0.1-0.1
			c0.3-0.2,0.9-0.4,1.5-0.7c0.6-0.3,1.2-0.5,2.1-0.9c0.2-0.1,0.4-0.3,0.8-0.5c0.1-0.1,0.2-0.2,0.3-0.2c0.1-0.1,0.2-0.2,0.3-0.4
			c0.1-0.1,0.1-0.3,0.2-0.4c0-0.1,0.1-0.2,0.1-0.2l0,0l0,0c0-0.1,0,0.2,0-0.3V169c0-0.3-0.1-0.7-0.1-0.9c-0.1-0.2-0.2-0.4-0.3-0.6
			c-0.2-0.3-0.4-0.6-0.6-0.7c-0.8-0.7-1.4-1-2-1.4c-0.6-0.3-1.2-0.7-1.5-0.9l-0.1-0.1c0,0,0,0-0.1,0l0,0c0,0,0.1,0.1,0.1,0.1
			c0,0.1,0.1,0.1,0.1,0.2c0,0,0,0.1,0,0.1l0-0.1l0-0.1l0,0c0,0.1-0.1-0.4,0.1,0.3c0,0,0,0.1,0,0.1c0,0.1,0,0.3,0,0.3
			c0,0,0,0.1,0,0.1c0,0,0,0,0,0c0-0.1,0.2-0.3,0.4-0.5c0.2-0.2,0.4-0.4,0.6-0.7c0.5-0.5,1-0.9,1.5-1.6l0.2-0.3l0.2-0.3
			c0.1-0.1,0.1-0.2,0.2-0.4l0.1-0.2l0-0.1c0,0,0-0.1,0.1-0.2c0.1-0.3,0.1-0.7,0.1-1c0-0.1,0-0.2,0-0.3c0.1,0.3-0.1-0.4-0.1-0.4
			l0-0.1l-0.1-0.2c-0.1-0.1-0.2-0.3-0.2-0.4c-0.2-0.2-0.3-0.3-0.5-0.5c-0.6-0.4-1.1-0.6-1.5-0.7c-0.4-0.1-0.8-0.2-1.1-0.2
			c-0.6-0.1-1.3-0.2-1.9-0.2c-0.1,0-0.3,0-0.4-0.1c-0.1,0-0.2,0-0.3-0.1c-0.1,0-0.1,0-0.2-0.1c0,0,0,0,0.1,0c0,0,0.1,0.1,0.1,0.1
			c0,0,0.1,0.1,0.1,0.1l-0.1-0.1l-0.1-0.1c0.1,0.1-0.2-0.3,0.1,0.2l0,0c0,0,0,0,0,0.1c0,0.1,0,0.2,0,0.2c0,0,0,0.1,0,0.1
			c0,0,0,0,0-0.1c0-0.1,0.1-0.3,0.2-0.5c0.2-0.5,0.5-1,0.8-1.5c0.3-0.6,0.6-1.1,0.9-1.9c0.1-0.2,0.1-0.4,0.2-0.7c0,0,0-0.2,0-0.3
			c0-0.1,0-0.2,0-0.3c0-0.1,0-0.2-0.1-0.3c0-0.1,0-0.1,0-0.1l0-0.1l0-0.1c0,0-0.2-0.5-0.1-0.3l0-0.1c-0.1-0.2-0.3-0.3-0.4-0.5
			c-0.2-0.2-0.6-0.4-0.7-0.4c-0.9-0.3-1.5-0.3-2-0.3c-0.5,0-1.1,0-1.6,0c-0.5,0-1,0-1.3-0.1l-0.1,0l0,0c0,0,0,0,0,0
			c0,0,0.1,0.1,0.1,0.1c0,0-0.1-0.1-0.1-0.1l-0.1-0.1c0,0,0.2,0.3,0.1,0.2l0,0l0,0c0,0,0,0.1,0,0.1c0,0,0,0,0-0.1
			c0-0.2,0.2-0.6,0.4-1c0.4-0.8,0.9-1.5,1.3-2.3c0.1-0.2,0.2-0.4,0.3-0.6c0-0.1,0.1-0.2,0.1-0.4l0-0.2c0-0.1,0-0.2,0-0.3
			c0-0.2,0-0.4,0-0.4l0-0.1l0,0c-0.1-0.2,0-0.1,0-0.1l0-0.1l-0.1-0.1c0-0.1-0.1-0.1-0.1-0.2l-0.2-0.1c-0.1-0.1-0.2-0.2-0.3-0.2
			c-0.8-0.4-1.4-0.5-2-0.6c-1.2-0.2-2.1-0.4-2.6-0.6c-0.1-0.1-0.3-0.1-0.4-0.2c-0.1-0.1-0.2-0.1-0.2-0.2
			C119.9,142.5,119.9,142.4,119.9,142.4z"/>
		<path id="XMLID_4_" class="st0" d="M100.6,122.8c0,0,0,0.1,0.1,0.2c0,0.1,0.1,0.1,0.2,0.2c0.1,0.1,0.2,0.2,0.4,0.2
			c0.6,0.3,1.5,0.6,2.7,0.9c0.6,0.2,1.2,0.3,1.7,0.6c0.1,0,0.1,0.1,0.1,0.1l0.1,0c0,0,0,0,0,0l0,0l0,0c0,0,0,0.1,0-0.1l0,0l0,0.1
			c0,0.1,0,0.1,0,0.1c0,0,0,0,0,0l0,0.1c0,0.1,0,0.1-0.1,0.2c-0.1,0.1-0.1,0.3-0.2,0.5c-0.4,0.7-0.9,1.4-1.4,2.2
			c-0.3,0.4-0.5,0.9-0.7,1.6c-0.1,0.2,0,0.5,0,0.7c0,0.1,0.1,0.3,0.1,0.4l0,0.1l0,0.1c-0.1-0.1,0.2,0.2,0.1,0.2l0.1,0.1
			c0.1,0.1,0.1,0.1,0.2,0.2c0.1,0.1,0.3,0.2,0.4,0.3c0.1,0,0.2,0.1,0.2,0.1l0.1,0l0.3,0.1c0.7,0.2,1.3,0.2,1.8,0.2
			c0.5,0,1.1,0,1.6,0c0.5,0,1,0.1,1.2,0.1c0.1,0,0,0,0,0c-0.1,0-0.1-0.1-0.2-0.1l-0.1-0.3l0,0.1l0,0.1c0,0,0,0.1,0,0.1
			c0,0,0-0.1-0.1-0.1c0,0,0-0.1,0-0.1c0,0,0-0.1,0-0.1c0,0,0,0.1-0.1,0.2c-0.1,0.3-0.3,0.8-0.6,1.3c-0.3,0.5-0.6,1.1-0.8,1.7
			c-0.1,0.3-0.3,0.7-0.4,1.2c0,0.1,0,0.3-0.1,0.4c0,0.2,0,0.4,0,0.5c0,0.2,0.1,0.5,0.2,0.7l0.1,0.2l0,0.1c0.4,0.5,0.1,0.1,0.2,0.3
			l0.1,0.1l0.1,0.1c0.1,0.1,0.2,0.2,0.3,0.2c0.1,0.1,0.2,0.1,0.3,0.2c0.1,0.1,0.2,0.1,0.3,0.1c0.2,0.1,0.5,0.2,0.7,0.2
			c0.2,0.1,0.4,0.1,0.6,0.1c0.2,0,0.4,0,0.6,0.1c0.7,0.1,1.4,0.1,1.9,0.1c0.3,0,0.6,0,0.8,0.1c0.2,0,0.4,0.1,0.3,0.1
			c-0.1,0-0.1-0.1-0.2-0.1c-0.1,0-0.1-0.1-0.1-0.2c0,0,0-0.1-0.1-0.1l0,0c0,0-0.2-0.6-0.1-0.3c0,0.1,0,0.2,0,0.2
			c-0.1-0.2-0.1-0.4,0-0.5c0-0.1,0-0.1,0-0.1l0,0l0,0c0,0,0,0,0,0.1l-0.1,0.1l-0.1,0.1c-0.3,0.4-0.7,0.9-1.1,1.4
			c-0.2,0.3-0.5,0.5-0.7,0.9c-0.2,0.3-0.5,0.7-0.7,1.2c-0.1,0.1-0.1,0.3-0.2,0.4c-0.1,0.2-0.1,0.4-0.1,0.6c0,0.2,0,0.5,0,0.8l0,0.2
			c0.2,0.7,0.1,0.2,0.1,0.4l0,0l0.1,0.1l0,0.1l0.1,0.2c0.1,0.1,0.2,0.3,0.3,0.4c0.1,0.1,0.2,0.2,0.3,0.3l0.2,0.1
			c0.1,0.1,0.2,0.2,0.3,0.3l0.3,0.2c0.8,0.5,1.4,0.7,2,1c0.6,0.3,1.2,0.5,1.4,0.7c0.1,0.1,0,0,0,0c0,0-0.1-0.1-0.1-0.2
			c0-0.1-0.1-0.2-0.1-0.4c0,0,0-0.1,0-0.1c0-0.5,0-0.1,0-0.2l0,0l0,0c0,0,0-0.1,0-0.2c0-0.1,0.1-0.2,0.1-0.3
			c0.1-0.1,0.1-0.2,0.1-0.2c0,0,0-0.1,0.1-0.1c0,0,0,0-0.1,0.1c-0.3,0.2-1,0.6-1.6,0.9c-0.6,0.3-1.3,0.7-2,1.3
			c-0.2,0.2-0.4,0.4-0.6,0.7c-0.2,0.3-0.5,0.7-0.6,1.3l0,0.2c0.1,0.8,0,0.2,0,0.4l0,0l0,0.1c0,0,0.1,0.2,0.1,0.4
			c0.1,0.2,0.2,0.3,0.2,0.5c0,0.1,0.1,0.2,0.1,0.2l0.1,0.1l0.2,0.2l0.2,0.2l0.1,0.1c0.7,0.6,1.3,0.9,1.9,1.3
			c0.6,0.3,1.1,0.7,1.4,0.9l0.1,0.1c0,0,0,0,0-0.1c0,0,0-0.1,0-0.1l0,0l0-0.1c0-0.1,0-0.1,0-0.2c0,0,0-0.1,0-0.1
			c0,0,0.1-0.7,0.1-0.4l0,0l0,0.1c0,0,0,0.1,0,0c0,0,0-0.1,0-0.1c0-0.1,0.1-0.2,0.1-0.2c0-0.1,0.2-0.2,0.1-0.1c0,0,0,0,0,0
			c-0.1,0.1-0.3,0.2-0.5,0.3c-0.2,0.1-0.5,0.2-0.8,0.4c-0.6,0.2-1.2,0.5-1.8,0.8c-0.3,0.2-0.7,0.4-1.1,0.8c-0.2,0.3-0.5,0.5-0.7,1.1
			l-0.1,0.2c0-0.3,0,0.5,0,0.4l0,0l0,0.1l0,0.1l0,0l0,0.1c0,0.1,0.1,0.3,0.1,0.4c0,0.1,0.1,0.3,0.2,0.4c0.1,0.1,0.1,0.1,0.1,0.2
			l0.2,0.3c0.1,0.2,0.3,0.3,0.4,0.5c0.3,0.3,0.5,0.5,0.8,0.7c0.5,0.4,0.9,0.7,1.4,1.1c0.2,0.2,0.4,0.3,0.6,0.5l0.2,0.2c0,0,0,0,0,0
			c0,0,0,0,0,0c0,0,0,0,0,0c0,0,0,0,0-0.2c0-0.1,0-0.1,0-0.2c0,0,0,0,0-0.1c-0.1,0.2,0.1-0.3,0.1-0.3l0,0l-0.1,0.2
			c0-0.1,0.1-0.2,0.2-0.3c0.1-0.1-0.1,0.1-0.3,0.1c-0.4,0.2-0.9,0.3-1.4,0.4c-0.5,0.1-1,0.3-1.6,0.4l-0.4,0.1l-0.4,0.2
			c-0.3,0.2-0.7,0.3-1.1,0.9c0,0.1-0.1,0.1-0.1,0.2c0,0-0.1,0.2,0,0.1l0,0l0,0l0,0.1l0,0.1c0,0.1,0,0.2,0,0.3c0,0.2,0,0.4,0.1,0.6
			c0.1,0.3,0.2,0.6,0.4,0.8c0.5,0.9,1.1,1.6,1.6,2.2c0.2,0.3,0.4,0.6,0.6,0.9c0.1,0.1,0.1,0.3,0.1,0.3c0,0,0,0,0,0c0,0,0,0,0,0
			c-0.1,0.1,0.1-0.1,0.1-0.1l0,0l0,0l-0.1,0.1c0,0.1,0,0,0,0c0,0,0,0,0,0c0,0-0.1,0-0.1,0c-0.1,0-0.3,0-0.4,0
			c-0.3,0-0.6-0.1-0.9-0.2c-1.1-0.3-2-0.6-2.7-0.7c-0.3-0.1-0.6,0-0.7,0c-0.2,0.1-0.2,0.1-0.2,0.1s0.1,0,0.2,0
			c0.2,0,0.4,0.1,0.7,0.2c0.6,0.2,1.4,0.7,2.5,1.2c0.3,0.1,0.6,0.3,0.9,0.4c0.2,0.1,0.4,0.1,0.6,0.1c0.1,0,0.2,0,0.4,0
			c0.1,0,0.2-0.1,0.3-0.1c0.1,0,0.2-0.1,0.2-0.1l0.1-0.1l0,0l0,0c0,0,0.2-0.2,0.1-0.1c0,0,0.1-0.1,0.1-0.1c0.1-0.2,0.1-0.4,0.1-0.5
			c0-0.3-0.1-0.6-0.1-0.8c-0.1-0.4-0.3-0.8-0.5-1.2c-0.4-0.8-0.9-1.5-1.1-2.3c-0.1-0.2-0.1-0.4-0.1-0.5c0-0.1,0-0.1,0-0.1
			c0,0.2,0,0,0,0.2c-0.1,0.2,0,0.1,0.1,0l0.3-0.1l0.3-0.1c0.4-0.1,0.9-0.1,1.5-0.2c0.5-0.1,1.1-0.1,1.7-0.3c0.3-0.1,0.7-0.2,1.2-0.6
			c0.2-0.2,0.3-0.3,0.5-0.5l0.1-0.2l0,0c0,0.1,0.2-0.5,0.1-0.3l0-0.2c0-0.1,0-0.2,0-0.4c0-0.3-0.1-0.4-0.1-0.6l-0.1-0.2l-0.1-0.2
			l-0.2-0.3c-0.1-0.2-0.2-0.3-0.4-0.5c-0.2-0.3-0.5-0.5-0.7-0.7c-0.4-0.4-0.9-0.8-1.3-1.2c-0.2-0.2-0.4-0.4-0.5-0.5
			c-0.1-0.1-0.1-0.2-0.2-0.2c0,0,0,0,0-0.1c0,0,0-0.1,0,0c0,0,0.1,0.1,0.1,0.2c0,0.1,0,0.1,0,0.2l0,0l0,0l0-0.1l0-0.1l0,0
			c0-0.1,0,0.6,0,0.3c0,0,0,0.1,0,0.1c-0.1,0.3-0.1,0.3-0.2,0.4c0,0,0.2-0.1,0.4-0.2c0.4-0.2,1-0.4,1.6-0.6c0.3-0.1,0.6-0.2,1-0.4
			c0.3-0.1,0.7-0.3,1.1-0.6c0.1-0.1,0.2-0.2,0.4-0.3c0,0,0.2-0.2,0.3-0.3c0.1-0.1,0.2-0.3,0.3-0.4c0-0.1,0.1-0.2,0.1-0.2l0-0.1
			l0-0.1l0,0c-0.1,0.3,0.1-0.5,0.1-0.4l0-0.2c0-0.2,0-0.3-0.1-0.5c0-0.1,0-0.2-0.1-0.2l-0.1-0.2c0-0.1-0.1-0.2-0.1-0.3
			c-0.1-0.2-0.2-0.3-0.3-0.5c-0.2-0.3-0.4-0.4-0.6-0.6c-0.7-0.6-1.3-1-1.8-1.3c-0.5-0.3-1.1-0.7-1.4-1l-0.1,0l0,0l0,0l0,0
			c0,0,0.1,0.1,0.1,0.1c0.1,0.1,0.1,0.2,0.1,0.3c0,0.1,0,0.3,0,0.2l0-0.1l0,0c0,0.2,0-0.4,0,0.4c0,0,0,0.1,0,0.1
			c0,0.3-0.1,0.4-0.1,0.4c0,0,0,0,0.1-0.1c0.3-0.2,0.8-0.5,1.4-0.8c0.6-0.3,1.2-0.6,2-1.1c0.2-0.1,0.4-0.3,0.7-0.6
			c0.1-0.1,0.2-0.2,0.2-0.3c0.1-0.1,0.2-0.2,0.3-0.4c0.1-0.1,0.1-0.3,0.2-0.5c0-0.1,0-0.2,0-0.2l0,0l0,0c0-0.1,0,0.2,0-0.3l0-0.2
			c0-0.3-0.1-0.6-0.2-0.8c-0.1-0.2-0.2-0.4-0.4-0.6c-0.2-0.3-0.5-0.5-0.7-0.7c-0.9-0.6-1.5-0.9-2.2-1.2c-0.6-0.3-1.2-0.5-1.6-0.8
			l-0.1-0.1c0,0,0,0-0.1,0l0,0c0,0,0.1,0.1,0.1,0.1c0,0.1,0.1,0.1,0.1,0.2c0,0,0,0.1,0,0.1l0-0.1l-0.1-0.1l0,0
			c0,0.1-0.1-0.3,0.1,0.3c0,0,0,0.1,0,0.1c0,0.1,0,0.3,0,0.3c0,0,0,0.1,0,0.1c0,0,0,0,0,0c0-0.1,0.2-0.3,0.3-0.5
			c0.2-0.2,0.3-0.5,0.5-0.7c0.4-0.5,0.8-1,1.3-1.7l0.2-0.3l0.2-0.3c0.1-0.1,0.1-0.2,0.2-0.4l0.1-0.2l0-0.1c0,0,0-0.1,0-0.2
			c0.1-0.3,0.1-0.7,0-1c0-0.1,0-0.2-0.1-0.3c0.1,0.3-0.1-0.4-0.1-0.4l-0.1-0.1l-0.1-0.2c-0.1-0.1-0.2-0.2-0.3-0.3
			c-0.2-0.2-0.4-0.3-0.5-0.4c-0.7-0.4-1.2-0.4-1.6-0.5c-0.4-0.1-0.8-0.1-1.1-0.1c-0.6,0-1.3,0-1.9,0c-0.1,0-0.3,0-0.4,0
			c-0.1,0-0.2,0-0.3,0c-0.1,0-0.1,0-0.2,0c0,0,0,0,0.1,0c0,0,0.1,0.1,0.1,0.1c0,0,0.1,0.1,0.1,0.1l-0.1-0.1l-0.1-0.1
			c0.1,0.1-0.2-0.3,0.2,0.2l0,0c0,0,0,0,0,0.1c0.1,0.1,0.1,0.2,0.1,0.2c0,0,0,0.1,0,0.1c0,0,0,0,0-0.1c0-0.1,0.1-0.3,0.1-0.6
			c0.2-0.5,0.4-1,0.6-1.6c0.2-0.6,0.5-1.2,0.7-2c0-0.2,0.1-0.5,0.1-0.7c0,0,0-0.2,0-0.3c0-0.1,0-0.2-0.1-0.3c0-0.1-0.1-0.2-0.1-0.3
			c0-0.1,0-0.1-0.1-0.1l0-0.1l0,0c0,0-0.3-0.4-0.2-0.3l-0.1-0.1c-0.1-0.2-0.3-0.3-0.5-0.4c-0.3-0.1-0.6-0.3-0.8-0.3
			c-0.9-0.2-1.5-0.1-2.1-0.1c-0.5,0.1-1.1,0.1-1.6,0.2c-0.5,0-1,0.1-1.3,0l-0.1,0l0,0c0,0,0,0,0,0c0,0,0.1,0.1,0.1,0.1
			c0,0-0.1-0.1-0.1-0.1l-0.1-0.1c0,0,0.2,0.3,0.1,0.2l0,0l0,0c0,0,0,0.1,0,0.1c0,0,0,0,0-0.1c0-0.2,0.2-0.7,0.3-1
			c0.3-0.8,0.8-1.6,1.1-2.4c0.1-0.2,0.2-0.4,0.2-0.7c0-0.1,0.1-0.2,0.1-0.4l0-0.2c0-0.1,0-0.2,0-0.3c0-0.2,0-0.4-0.1-0.4l0-0.1l0,0
			c-0.1-0.2,0-0.1-0.1-0.1l0-0.1l-0.1-0.1c-0.1-0.1-0.1-0.1-0.2-0.2l-0.2-0.1c-0.1-0.1-0.2-0.1-0.3-0.2c-0.8-0.3-1.5-0.3-2.1-0.4
			c-1.2-0.1-2.1-0.1-2.7-0.3c-0.1,0-0.3-0.1-0.4-0.2c-0.1-0.1-0.2-0.1-0.2-0.2C100.6,122.9,100.6,122.8,100.6,122.8z"/>
	</g>
</g>
</svg>
