<?xml version="1.0" encoding="utf-8"?>
<!-- Generator: Adobe Illustrator 19.0.0, SVG Export Plug-In . SVG Version: 6.00 Build 0)  -->
<svg version="1.1" id="Слой_1" xmlns="http://www.w3.org/2000/svg" xmlns:xlink="http://www.w3.org/1999/xlink" x="0px" y="0px"
	 viewBox="0 0 177 197" style="enable-background:new 0 0 177 197;" xml:space="preserve">
<style type="text/css">
	.st0{fill:#FEE0B4;}
	.st1{fill:#FDD4A5;}
	.st2{fill:#EFBE86;}
	.st3{fill:#6C4833;}
	.st4{fill:#9D6746;}
	.st5{fill:#BF7E56;}
	.st6{fill:#EAF3EF;}
	.st7{fill:#D1DAD5;}
	.st8{fill:#D9E1DC;}
	.st9{fill:#B0CAC3;}
	.st10{fill:#191517;}
</style>
<g id="XMLID_1_">
	<g id="XMLID_65_">
		<g id="XMLID_66_">
			<g id="XMLID_67_">
				<g id="XMLID_16_">
					<g id="XMLID_69_">
						<path id="XMLID_75_" class="st0" d="M100.7,127.4c-3.5,1.7-9.7,3.8-12.9,3.7V29.2c0,0,32.9-2.6,36.6,24.2
							c1.5,10.9,1,22.5,0.2,31.6c-0.7,6.8-1.5,12.7-2.4,16.9c-0.5,2.7-1.1,4.7-1.5,5.9c-0.7,1.9-2.2,4.3-4,6.7
							c-0.1,0.2-0.2,0.3-0.4,0.5c-3.8,4.8-10.9,9.8-14.5,11.9C101.5,127,101.1,127.2,100.7,127.4z"/>
						<path id="XMLID_74_" class="st0" d="M167.5,179.1l7.9,17.9H87.7h0H0L8,179.1c0,0,22.9-11.4,35.3-19.3c0,0.1,3.4,1.2,3.4,1.3
							c5.2,2,12.5-4.4,16.1-7.1c3.9-2.9,35.4-20.4,37.8-26.6c0.4-0.2,0.8-0.4,1.1-0.6c3.6-2.1,10.7-7.1,14.5-11.9
							c-1.3,4.7-1.2,11.4-1.3,16.2c-0.2,9.2,3,17.1,11,24.2C133.9,162.4,167.5,179.1,167.5,179.1z"/>
						<path id="XMLID_73_" class="st1" d="M53.5,101.8c-0.8-4.2-1.7-10-2.4-16.8c-0.9-9.1-1.3-20.8,0.2-31.6
							C55,26.6,87.9,29.2,87.9,29.2v101.9c-3.5,0.2-10.9-2.5-14-4.3c-3.8-2.2-11.1-7.4-14.9-12.4c0,0,0-0.1-0.1-0.1
							c-1.8-2.4-3.2-4.7-4-6.6C54.6,106.6,54,104.6,53.5,101.8C53.5,101.8,53.5,101.8,53.5,101.8z"/>
						<path id="XMLID_72_" class="st2" d="M87.9,131.1c3.2,0.2,9.4-2,12.9-3.7c-2.5,6.2-33.9,23.7-37.8,26.6
							c-3.6,2.7-10.9,9.1-16.1,7.1c0-0.1-3.4-1.2-3.4-1.3c2.6-1.7,4.8-3.2,6.2-4.4c7.9-7.1,11.2-15,11-24.2c-0.1-5,0-12-1.5-16.8
							c0,0,0,0.1,0.1,0.1c3.8,5,11.1,10.2,14.9,12.4C76.9,128.6,84.3,131.3,87.9,131.1z"/>
						<path id="XMLID_71_" class="st2" d="M47.7,88.8c0.9-2.6,3.3-3.8,3.3-3.8h0.1c0.7,6.8,1.5,12.6,2.4,16.8l-0.2,0
							C51.5,99.2,46.8,91.5,47.7,88.8z"/>
						<path id="XMLID_70_" class="st2" d="M122.2,101.9c0.8-4.2,1.7-10,2.4-16.9h0.1c0,0,2.4,1.2,3.3,3.8c1,2.7-3.7,10.4-5.6,13
							H122.2z"/>
					</g>
				</g>
			</g>
		</g>
	</g>
	<g id="XMLID_30_">
		<g id="XMLID_18_">
			<g id="XMLID_63_">
				<path id="XMLID_64_" class="st3" d="M94.9,34.4l-1.8-0.8c1.4-0.9,2.4-1.9,3-3c1.3-2.3,1-5.2-0.2-9c-0.1-0.2-0.1-0.4-0.2-0.5
					l0.5-0.2c0.5-1.1,3-1.9,4.8-2.1c5.6-0.6,13.9,6.1,17.2,10.2c9.8,12,8.6,42.9,7,48c-0.3,0-0.6,0-1,0.1c-0.1-0.1-0.1-0.1-0.2-0.2
					c-2.2-2.8-3.7-7.7-4.4-10.7c-1-4.7-1.3-9.8-2.7-14.5c-1.7-5.4-4.4-9.7-8.6-13.4C103.9,34.5,100,36.3,94.9,34.4z"/>
			</g>
			<g id="XMLID_61_">
				<path id="XMLID_62_" class="st4" d="M60.7,41c-2.2,0.2-4.8,0.2-7.4-0.1c-7.8-0.8-15.7-4-14.2-11.6c3.1,2.6,6.5,2.7,10.4,2.7
					c-3.5-2.2-4.1-4.9-5.4-8.4c2.7,3.3,4.6,5.2,8.9,4.7c6.2-0.6,8.9-6.1,13.7-9.3c4.8-3.3,11.1-5.1,16.8-5.1
					c6.2,0,10.2,1.9,12.1,7.3c0.1,0.2,0.1,0.3,0.2,0.5c1.2,3.8,1.5,6.6,0.2,9l-0.2-0.1c-2.8,4.4-10.6,5-15.1,5.8
					c-5.4,1-10.5,2.2-15.8,3.8C64,40.6,62.5,40.8,60.7,41z"/>
			</g>
			<g id="XMLID_59_">
				<path id="XMLID_60_" class="st3" d="M53.3,40.9c2.6,0.3,5.2,0.3,7.4,0.1c-4.5,3.5-5.7,9-6.2,14.9c-0.7,8.2-3.2,18.4-3.7,26.7
					C47.6,72.3,45.5,50,53.3,40.9z"/>
			</g>
		</g>
		<g id="XMLID_56_">
			<path id="XMLID_57_" class="st3" d="M96.6,23.8c-0.4-1.5-1.1-2.8-2.2-3.8c-1.1-1-2.5-1.6-3.9-2c-1.4-0.4-2.9-0.5-4.4-0.5
				c-1.5,0-3,0.1-4.4,0.5c-2.9,0.7-5.5,2.3-8,3.9c-1.3,0.8-2.6,1.6-4,2.2c-1.4,0.6-2.8,1.2-4.3,1.4c1.5-0.4,2.8-1,4.1-1.7
				c1.3-0.7,2.6-1.6,3.8-2.4c2.5-1.7,5.1-3.4,8.1-4.1c1.5-0.4,3.1-0.4,4.6-0.4c1.5,0,3.1,0.2,4.5,0.6c1.5,0.4,2.9,1.2,4,2.3
				C95.8,20.8,96.4,22.3,96.6,23.8z"/>
		</g>
		<g id="XMLID_54_">
			<path id="XMLID_55_" class="st3" d="M96.6,28.2c0.1-1.3-0.5-2.5-1.4-3.3c-0.9-0.8-2-1.4-3.2-1.8c-1.2-0.4-2.4-0.7-3.7-0.8
				c-1.2-0.1-2.5,0-3.7,0.4c1.1-0.7,2.4-1,3.7-1c1.3,0,2.6,0.2,3.9,0.7c1.2,0.5,2.4,1.1,3.3,2.1c0.5,0.5,0.8,1.1,1,1.7
				C96.8,26.9,96.8,27.6,96.6,28.2z"/>
		</g>
		<g id="XMLID_39_">
			<g id="XMLID_40_">
				<g id="XMLID_17_">
					<g id="XMLID_52_">
						<path id="XMLID_53_" class="st3" d="M123.7,122.9c-0.4,2.4-2.3,11.4,2.6,10.7c-1.1,0.9-4.3,1.8-5.7,1.2
							c-0.5-0.2-2.5,6.3-2.5,7.1c-0.3,2.4-0.9,4.4-2.2,6.5c-2.8,4.4-7.2,7.9-12,9.7c-5.3,2-10.1,2.3-15.8,2.3h-0.7
							c-5.7,0-10.4-0.4-15.8-2.3c-4.9-1.8-9.3-5.3-12-9.7c-1.3-2.1-2-4-2.2-6.5c-0.1-0.8-2-7.4-2.5-7.1c-1.4,0.6-4.6-0.3-5.7-1.2
							c4.9,0.7,3-8.2,2.6-10.7c-1.2-7-3.2-14-2.1-21.2c1.4,0.6,2.9,1,3.9,1.2c3.4,0.7,7.3,1.3,10.8,0.7c1.8-0.3,3.7-1.3,5.4-2.3
							c2.8,1.5,7.4,3.2,10.4,1.4c-2.6,1.7-4.4,3.5-7.9,3.3c3.7,6.8,11.3-2.1,15.2-3.3H88c0.1,0,0.2,0.1,0.3,0.1
							c4,1.5,11.3,9.9,14.9,3.2c-3.4,0.2-5.2-1.6-7.9-3.3c3,1.9,7.5,0.1,10.4-1.4c1.8,1,3.6,1.9,5.4,2.3c3.5,0.6,7.4,0,10.8-0.7
							c1-0.2,2.5-0.6,3.9-1.2C127,108.8,124.9,115.9,123.7,122.9z"/>
					</g>
					<g id="XMLID_50_">
						<path id="XMLID_51_" class="st3" d="M124.5,80.8c0,5.3,0.1,13.2,1,18.7c-2.6,0.5-5.2,0.1-8.2-0.7c-2.9-0.8-5.7-1.7-8.2-3.4
							c-0.5-0.3-1-0.7-1.5-1c3.1,0.9,7.3-1.1,9.7-2.7C120,89.8,124,84.8,124.5,80.8L124.5,80.8z"/>
					</g>
					<g id="XMLID_48_">
						<path id="XMLID_49_" class="st4" d="M95.4,102.7c2.6,1.7,4.4,3.5,7.9,3.3c-3.7,6.7-11-1.7-14.9-3.2l0-0.3
							C90.9,102.4,93,101.1,95.4,102.7z"/>
					</g>
					<g id="XMLID_46_">
						<path id="XMLID_47_" class="st4" d="M87.4,102.5v0.2c-3.9,1.2-11.5,10.1-15.2,3.3c3.4,0.2,5.2-1.6,7.9-3.3
							C82.5,101,84.7,102.5,87.4,102.5z"/>
					</g>
					<g id="XMLID_44_">
						<path id="XMLID_45_" class="st3" d="M67.8,94.4c-0.5,0.3-1,0.7-1.5,1c-2.5,1.6-5.4,2.5-8.2,3.4c-2.9,0.8-5.5,1.2-8.2,0.7
							c0.8-5.5,1-13.3,1-18.7h0c0.5,4,4.5,9,7.2,10.8C60.5,93.3,64.6,95.3,67.8,94.4z"/>
					</g>
					<g id="XMLID_42_">
						<path id="XMLID_43_" class="st5" d="M125.5,99.5c-2.6,0.5-5.2,0.1-8.2-0.7c-2.9-0.8-5.7-1.7-8.2-3.4c-0.5-0.3-1-0.7-1.5-1
							c0,0,0,0,0,0c-1.2-0.9-2.3-1.8-3.5-2.6c-3.4-2.1-6.6-4.4-10.7-3.8c-1.8,0.2-5.1,1.6-5.3,3.6h-0.7c-0.2-2-3.5-3.3-5.3-3.6
							c-4.1-0.6-7.4,1.7-10.7,3.8c-1.2,0.8-2.4,1.7-3.5,2.6c0,0,0,0,0,0c-0.5,0.3-1,0.7-1.5,1c-2.5,1.6-5.4,2.5-8.2,3.4
							c-2.9,0.8-5.5,1.2-8.2,0.7c-1.1-0.2-2.2-0.6-3.3-1.2c0,1.5,1.3,2.6,2.9,3.4c1.4,0.6,2.9,1,3.9,1.2c3.4,0.7,7.3,1.3,10.8,0.7
							c1.8-0.3,3.7-1.3,5.4-2.3c1.4-0.8,2.9-1.8,4.2-2.5c2.8-1.5,6.1-2.9,9.2-3.1c1.5-0.1,3,0.4,4.3-0.2H88c1.3,0.5,2.8,0.1,4.3,0.2
							c3.2,0.2,6.4,1.6,9.2,3.1c1.4,0.7,2.8,1.6,4.2,2.5c1.8,1,3.6,1.9,5.4,2.3c3.5,0.6,7.4,0,10.8-0.7c1-0.2,2.5-0.6,3.9-1.2
							c1.6-0.7,2.9-1.8,2.9-3.4C127.7,98.9,126.6,99.3,125.5,99.5z"/>
					</g>
				</g>
			</g>
		</g>
		<g id="XMLID_37_">
			<path id="XMLID_38_" class="st4" d="M76.5,111.3c-1.4,2.2-1.8,4.9-1.4,7.5c0.3,2.6,1.2,5.1,2.1,7.5c0.9,2.5,1.8,4.9,2.3,7.6
				c0.2,1.3,0.3,2.7,0.1,4c-0.2,1.3-0.8,2.6-1.7,3.6c0.7-1.1,1.2-2.3,1.3-3.6c0.2-1.3,0-2.6-0.3-3.8c-0.5-2.5-1.5-5-2.4-7.4
				c-0.9-2.5-1.7-5-2-7.7c-0.1-1.3-0.1-2.7,0.2-4C75.2,113.6,75.7,112.4,76.5,111.3z"/>
		</g>
		<g id="XMLID_35_">
			<path id="XMLID_36_" class="st4" d="M82.5,112.3c-1,1-1.7,2.3-1.7,3.6c-0.1,1.3,0.4,2.6,1,3.9c0.6,1.3,1.2,2.5,1.7,3.8
				c0.2,0.7,0.4,1.4,0.4,2.1c0,0.7-0.1,1.5-0.5,2.1c0.5-1.4,0.1-2.7-0.5-4c-0.6-1.3-1.3-2.5-1.8-3.8c-0.6-1.3-1.1-2.7-0.9-4.2
				c0.1-0.7,0.4-1.4,0.8-2C81.4,113.2,81.9,112.7,82.5,112.3z"/>
		</g>
		<g id="XMLID_33_">
			<path id="XMLID_34_" class="st4" d="M98.4,111.3c0.8,1,1.4,2.3,1.7,3.6c0.3,1.3,0.4,2.7,0.2,4c-0.2,2.7-1.1,5.2-2,7.7
				c-0.9,2.5-1.9,4.9-2.4,7.4c-0.3,1.3-0.4,2.6-0.3,3.8c0.1,1.3,0.6,2.5,1.3,3.6c-0.9-1-1.4-2.3-1.7-3.6c-0.2-1.3-0.1-2.7,0.1-4
				c0.5-2.6,1.4-5.1,2.3-7.6c0.9-2.5,1.8-4.9,2.1-7.5C100.2,116.3,99.8,113.6,98.4,111.3z"/>
		</g>
		<g id="XMLID_31_">
			<path id="XMLID_32_" class="st4" d="M92.5,112.3c0.6,0.4,1.1,0.9,1.5,1.5c0.4,0.6,0.7,1.3,0.8,2c0.2,1.5-0.3,2.9-0.9,4.2
				c-0.6,1.3-1.3,2.5-1.8,3.8c-0.5,1.2-0.9,2.6-0.5,4c-0.4-0.6-0.5-1.3-0.5-2.1c0-0.7,0.2-1.4,0.5-2.1c0.5-1.4,1.2-2.6,1.7-3.8
				c0.6-1.2,1-2.6,1-3.9C94.1,114.5,93.4,113.3,92.5,112.3z"/>
		</g>
	</g>
	<g id="XMLID_11_">
		<g id="XMLID_4_">
			<g id="XMLID_21_">
				<path id="XMLID_29_" class="st6" d="M88.5,181.4c0,0,39.7,1,46.3-21.4c1.4,0.7,2.8,1.5,4.3,2.2l-0.2,0.8
					c-13.8,24.6-50.2,22.1-50.2,22.1h-0.3L88.5,181.4L88.5,181.4z"/>
				<path id="XMLID_26_" class="st7" d="M88.5,185.2h0.3c0,0,36.4,2.5,50.2-22.1l0.2-0.8c10.6,5.2,24.1,10.8,29.8,16.7
					c3.4,3.6,8,18,8,18H88.8h0h-0.3V185.2z M96.1,189.5c0-1-0.8-1.8-1.8-1.8c-1,0-1.8,0.8-1.8,1.8c0,1,0.8,1.8,1.8,1.8
					C95.3,191.4,96.1,190.5,96.1,189.5z"/>
				<path id="XMLID_25_" class="st8" d="M88.2,185.2c0,0-36.4,2.5-50.2-22.1l-1.4-0.3c1.9-0.9,3.8-1.9,5.5-2.8
					c6.6,22.4,46.3,21.4,46.3,21.4v3.8H88.2z"/>
				<path id="XMLID_24_" class="st9" d="M88.5,185.2V197h-0.3h0H0c0,0,4.6-14.5,8-18c5.4-5.7,18.2-11.1,28.6-16.2l1.4,0.3
					c13.8,24.6,50.2,22.1,50.2,22.1H88.5z"/>
				<path id="XMLID_22_" class="st10" d="M94.3,187.7c1,0,1.8,0.8,1.8,1.8c0,1-0.8,1.8-1.8,1.8c-1,0-1.8-0.8-1.8-1.8
					C92.4,188.5,93.2,187.7,94.3,187.7z"/>
			</g>
		</g>
	</g>
</g>
</svg>
